<?xml version="1.0" standalone="no"?>
 <!DOCTYPE svg PUBLIC "-//W3C//DTD SVG 1.1//EN" 
 "http://www.w3.org/Graphics/SVG/1.1/DTD/svg11.dtd"> 
<svg
  xmlns:svg="http://www.w3.org/2000/svg"
  xmlns="http://www.w3.org/2000/svg"
  xmlns:xlink="http://www.w3.org/1999/xlink"
  version="1.1"
  width="118.4910mm" height="108.2040mm" viewBox="0.0000 0.0000 118.4910 108.2040">
<title>SVG Image created as Patje zuig men kloten-F_Paste.svg date 2025/05/04 11:17:00 </title>
  <desc>Image generated by PCBNEW </desc>
<g style="fill:#000000; fill-opacity:1.0000;stroke:#000000; stroke-opacity:1.0000;
stroke-linecap:round; stroke-linejoin:round;"
 transform="translate(0 0) scale(1 1)">
<path style="fill:#B4A09A; fill-opacity:0.9000; stroke:none;fill-rule:evenodd;"
d="M 56.8145,48.6130
56.9102,48.6320
56.9913,48.6862
57.0455,48.7673
57.0645,48.8630
57.0645,49.3880
57.0455,49.4837
56.9913,49.5648
56.9102,49.6190
56.8145,49.6380
55.9145,49.6380
55.8188,49.6190
55.7377,49.5648
55.6835,49.4837
55.6645,49.3880
55.6645,48.8630
55.6835,48.7673
55.7377,48.6862
55.8188,48.6320
55.9145,48.6130
Z" /> 
<path style="fill:#B4A09A; fill-opacity:0.9000; stroke:none;fill-rule:evenodd;"
d="M 56.8145,50.4380
56.9102,50.4570
56.9913,50.5112
57.0455,50.5923
57.0645,50.6880
57.0645,51.2130
57.0455,51.3087
56.9913,51.3898
56.9102,51.4440
56.8145,51.4630
55.9145,51.4630
55.8188,51.4440
55.7377,51.3898
55.6835,51.3087
55.6645,51.2130
55.6645,50.6880
55.6835,50.5923
55.7377,50.5112
55.8188,50.4570
55.9145,50.4380
Z" /> 
<path style="fill:#B4A09A; fill-opacity:0.9000; stroke:none;fill-rule:evenodd;"
d="M 92.9755,27.5365
92.8798,27.5175
92.7987,27.4633
92.7445,27.3822
92.7255,27.2865
92.7255,26.5615
92.7445,26.4658
92.7987,26.3847
92.8798,26.3305
92.9755,26.3115
95.8255,26.3115
95.9212,26.3305
96.0023,26.3847
96.0565,26.4658
96.0755,26.5615
96.0755,27.2865
96.0565,27.3822
96.0023,27.4633
95.9212,27.5175
95.8255,27.5365
Z" /> 
<path style="fill:#B4A09A; fill-opacity:0.9000; stroke:none;fill-rule:evenodd;"
d="M 92.9755,21.6115
92.8798,21.5925
92.7987,21.5383
92.7445,21.4572
92.7255,21.3615
92.7255,20.6365
92.7445,20.5408
92.7987,20.4597
92.8798,20.4055
92.9755,20.3865
95.8255,20.3865
95.9212,20.4055
96.0023,20.4597
96.0565,20.5408
96.0755,20.6365
96.0755,21.3615
96.0565,21.4572
96.0023,21.5383
95.9212,21.5925
95.8255,21.6115
Z" /> 
<path style="fill:#B4A09A; fill-opacity:0.9000; stroke:none;fill-rule:evenodd;"
d="M 56.6245,67.0705
56.6435,66.9748
56.6977,66.8937
56.7788,66.8395
56.8745,66.8205
57.3995,66.8205
57.4952,66.8395
57.5763,66.8937
57.6305,66.9748
57.6495,67.0705
57.6495,67.9705
57.6305,68.0662
57.5763,68.1473
57.4952,68.2015
57.3995,68.2205
56.8745,68.2205
56.7788,68.2015
56.6977,68.1473
56.6435,68.0662
56.6245,67.9705
Z" /> 
<path style="fill:#B4A09A; fill-opacity:0.9000; stroke:none;fill-rule:evenodd;"
d="M 58.4495,67.0705
58.4685,66.9748
58.5227,66.8937
58.6038,66.8395
58.6995,66.8205
59.2245,66.8205
59.3202,66.8395
59.4013,66.8937
59.4555,66.9748
59.4745,67.0705
59.4745,67.9705
59.4555,68.0662
59.4013,68.1473
59.3202,68.2015
59.2245,68.2205
58.6995,68.2205
58.6038,68.2015
58.5227,68.1473
58.4685,68.0662
58.4495,67.9705
Z" /> 
<path style="fill:#B4A09A; fill-opacity:0.9000; stroke:none;fill-rule:evenodd;"
d="M 61.0445,38.4530
61.0635,38.3573
61.1177,38.2762
61.1988,38.2220
61.2945,38.2030
62.0195,38.2030
62.1152,38.2220
62.1963,38.2762
62.2505,38.3573
62.2695,38.4530
62.2695,41.3030
62.2505,41.3987
62.1963,41.4798
62.1152,41.5340
62.0195,41.5530
61.2945,41.5530
61.1988,41.5340
61.1177,41.4798
61.0635,41.3987
61.0445,41.3030
Z" /> 
<path style="fill:#B4A09A; fill-opacity:0.9000; stroke:none;fill-rule:evenodd;"
d="M 66.9695,38.4530
66.9885,38.3573
67.0427,38.2762
67.1238,38.2220
67.2195,38.2030
67.9445,38.2030
68.0402,38.2220
68.1213,38.2762
68.1755,38.3573
68.1945,38.4530
68.1945,41.3030
68.1755,41.3987
68.1213,41.4798
68.0402,41.5340
67.9445,41.5530
67.2195,41.5530
67.1238,41.5340
67.0427,41.4798
66.9885,41.3987
66.9695,41.3030
Z" /> 
<path style="fill:#B4A09A; fill-opacity:0.9000; stroke:none;fill-rule:evenodd;"
d="M 88.0855,27.5365
87.9898,27.5175
87.9087,27.4633
87.8545,27.3822
87.8355,27.2865
87.8355,26.5615
87.8545,26.4658
87.9087,26.3847
87.9898,26.3305
88.0855,26.3115
90.9355,26.3115
91.0312,26.3305
91.1123,26.3847
91.1665,26.4658
91.1855,26.5615
91.1855,27.2865
91.1665,27.3822
91.1123,27.4633
91.0312,27.5175
90.9355,27.5365
Z" /> 
<path style="fill:#B4A09A; fill-opacity:0.9000; stroke:none;fill-rule:evenodd;"
d="M 88.0855,21.6115
87.9898,21.5925
87.9087,21.5383
87.8545,21.4572
87.8355,21.3615
87.8355,20.6365
87.8545,20.5408
87.9087,20.4597
87.9898,20.4055
88.0855,20.3865
90.9355,20.3865
91.0312,20.4055
91.1123,20.4597
91.1665,20.5408
91.1855,20.6365
91.1855,21.3615
91.1665,21.4572
91.1123,21.5383
91.0312,21.5925
90.9355,21.6115
Z" /> 
<path style="fill:#B4A09A; fill-opacity:0.9000; stroke:none;fill-rule:evenodd;"
d="M 72.3605,75.3700
72.4466,75.3871
72.5196,75.4359
72.5684,75.5089
72.5855,75.5950
72.5855,76.0450
72.5684,76.1311
72.5196,76.2041
72.4466,76.2529
72.3605,76.2700
71.6105,76.2700
71.5244,76.2529
71.4514,76.2041
71.4026,76.1311
71.3855,76.0450
71.3855,75.5950
71.4026,75.5089
71.4514,75.4359
71.5244,75.3871
71.6105,75.3700
Z" /> 
<path style="fill:#B4A09A; fill-opacity:0.9000; stroke:none;fill-rule:evenodd;"
d="M 72.3605,78.6700
72.4466,78.6871
72.5196,78.7359
72.5684,78.8089
72.5855,78.8950
72.5855,79.3450
72.5684,79.4311
72.5196,79.5041
72.4466,79.5529
72.3605,79.5700
71.6105,79.5700
71.5244,79.5529
71.4514,79.5041
71.4026,79.4311
71.3855,79.3450
71.3855,78.8950
71.4026,78.8089
71.4514,78.7359
71.5244,78.6871
71.6105,78.6700
Z" /> 
<path style="fill:#B4A09A; fill-opacity:0.9000; stroke:none;fill-rule:evenodd;"
d="M 71.5105,74.3480
71.4148,74.3290
71.3337,74.2748
71.2795,74.1937
71.2605,74.0980
71.2605,73.5980
71.2795,73.5023
71.3337,73.4212
71.4148,73.3670
71.5105,73.3480
72.4605,73.3480
72.5562,73.3670
72.6373,73.4212
72.6915,73.5023
72.7105,73.5980
72.7105,74.0980
72.6915,74.1937
72.6373,74.2748
72.5562,74.3290
72.4605,74.3480
Z" /> 
<path style="fill:#B4A09A; fill-opacity:0.9000; stroke:none;fill-rule:evenodd;"
d="M 71.5105,72.4480
71.4148,72.4290
71.3337,72.3748
71.2795,72.2937
71.2605,72.1980
71.2605,71.6980
71.2795,71.6023
71.3337,71.5212
71.4148,71.4670
71.5105,71.4480
72.4605,71.4480
72.5562,71.4670
72.6373,71.5212
72.6915,71.6023
72.7105,71.6980
72.7105,72.1980
72.6915,72.2937
72.6373,72.3748
72.5562,72.4290
72.4605,72.4480
Z" /> 
<path style="fill:#B4A09A; fill-opacity:0.9000; stroke:none;fill-rule:evenodd;"
d="M 84.1085,75.9520
84.1256,75.8659
84.1744,75.7929
84.2474,75.7441
84.3335,75.7270
84.7835,75.7270
84.8696,75.7441
84.9426,75.7929
84.9914,75.8659
85.0085,75.9520
85.0085,76.7020
84.9914,76.7881
84.9426,76.8611
84.8696,76.9099
84.7835,76.9270
84.3335,76.9270
84.2474,76.9099
84.1744,76.8611
84.1256,76.7881
84.1085,76.7020
Z" /> 
<path style="fill:#B4A09A; fill-opacity:0.9000; stroke:none;fill-rule:evenodd;"
d="M 87.4085,75.9520
87.4256,75.8659
87.4744,75.7929
87.5474,75.7441
87.6335,75.7270
88.0835,75.7270
88.1696,75.7441
88.2426,75.7929
88.2914,75.8659
88.3085,75.9520
88.3085,76.7020
88.2914,76.7881
88.2426,76.8611
88.1696,76.9099
88.0835,76.9270
87.6335,76.9270
87.5474,76.9099
87.4744,76.8611
87.4256,76.7881
87.4085,76.7020
Z" /> 
<path style="fill:#B4A09A; fill-opacity:0.9000; stroke:none;fill-rule:evenodd;"
d="M 38.7865,12.3340
38.7675,12.4297
38.7133,12.5108
38.6322,12.5650
38.5365,12.5840
36.5365,12.5840
36.4408,12.5650
36.3597,12.5108
36.3055,12.4297
36.2865,12.3340
36.2865,11.0340
36.3055,10.9383
36.3597,10.8572
36.4408,10.8030
36.5365,10.7840
38.5365,10.7840
38.6322,10.8030
38.7133,10.8572
38.7675,10.9383
38.7865,11.0340
Z" /> 
<path style="fill:#B4A09A; fill-opacity:0.9000; stroke:none;fill-rule:evenodd;"
d="M 34.7865,12.3340
34.7675,12.4297
34.7133,12.5108
34.6322,12.5650
34.5365,12.5840
32.5365,12.5840
32.4408,12.5650
32.3597,12.5108
32.3055,12.4297
32.2865,12.3340
32.2865,11.0340
32.3055,10.9383
32.3597,10.8572
32.4408,10.8030
32.5365,10.7840
34.5365,10.7840
34.6322,10.8030
34.7133,10.8572
34.7675,10.9383
34.7865,11.0340
Z" /> 
<path style="fill:#B4A09A; fill-opacity:0.9000; stroke:none;fill-rule:evenodd;"
d="M 58.3385,86.4590
58.4342,86.4780
58.5153,86.5322
58.5695,86.6133
58.5885,86.7090
58.5885,87.2340
58.5695,87.3297
58.5153,87.4108
58.4342,87.4650
58.3385,87.4840
57.4385,87.4840
57.3428,87.4650
57.2617,87.4108
57.2075,87.3297
57.1885,87.2340
57.1885,86.7090
57.2075,86.6133
57.2617,86.5322
57.3428,86.4780
57.4385,86.4590
Z" /> 
<path style="fill:#B4A09A; fill-opacity:0.9000; stroke:none;fill-rule:evenodd;"
d="M 58.3385,88.2840
58.4342,88.3030
58.5153,88.3572
58.5695,88.4383
58.5885,88.5340
58.5885,89.0590
58.5695,89.1547
58.5153,89.2358
58.4342,89.2900
58.3385,89.3090
57.4385,89.3090
57.3428,89.2900
57.2617,89.2358
57.2075,89.1547
57.1885,89.0590
57.1885,88.5340
57.2075,88.4383
57.2617,88.3572
57.3428,88.3030
57.4385,88.2840
Z" /> 
<path style="fill:#B4A09A; fill-opacity:0.9000; stroke:none;fill-rule:evenodd;"
d="M 64.8575,20.9050
64.9532,20.9240
65.0343,20.9782
65.0885,21.0593
65.1075,21.1550
65.1075,25.0550
65.0885,25.1507
65.0343,25.2318
64.9532,25.2860
64.8575,25.3050
62.8575,25.3050
62.7618,25.2860
62.6807,25.2318
62.6265,25.1507
62.6075,25.0550
62.6075,21.1550
62.6265,21.0593
62.6807,20.9782
62.7618,20.9240
62.8575,20.9050
Z" /> 
<path style="fill:#B4A09A; fill-opacity:0.9000; stroke:none;fill-rule:evenodd;"
d="M 64.8575,29.3050
64.9532,29.3240
65.0343,29.3782
65.0885,29.4593
65.1075,29.5550
65.1075,33.4550
65.0885,33.5507
65.0343,33.6318
64.9532,33.6860
64.8575,33.7050
62.8575,33.7050
62.7618,33.6860
62.6807,33.6318
62.6265,33.5507
62.6075,33.4550
62.6075,29.5550
62.6265,29.4593
62.6807,29.3782
62.7618,29.3240
62.8575,29.3050
Z" /> 
<path style="fill:#B4A09A; fill-opacity:0.9000; stroke:none;fill-rule:evenodd;"
d="M 74.4725,69.9750
74.4839,69.9176
74.5164,69.8689
74.5651,69.8364
74.6225,69.8250
76.2725,69.8250
76.3299,69.8364
76.3786,69.8689
76.4111,69.9176
76.4225,69.9750
76.4225,70.2750
76.4111,70.3324
76.3786,70.3811
76.3299,70.4136
76.2725,70.4250
74.6225,70.4250
74.5651,70.4136
74.5164,70.3811
74.4839,70.3324
74.4725,70.2750
Z" /> 
<path style="fill:#B4A09A; fill-opacity:0.9000; stroke:none;fill-rule:evenodd;"
d="M 74.4725,71.2450
74.4839,71.1876
74.5164,71.1389
74.5651,71.1064
74.6225,71.0950
76.2725,71.0950
76.3299,71.1064
76.3786,71.1389
76.4111,71.1876
76.4225,71.2450
76.4225,71.5450
76.4111,71.6024
76.3786,71.6511
76.3299,71.6836
76.2725,71.6950
74.6225,71.6950
74.5651,71.6836
74.5164,71.6511
74.4839,71.6024
74.4725,71.5450
Z" /> 
<path style="fill:#B4A09A; fill-opacity:0.9000; stroke:none;fill-rule:evenodd;"
d="M 74.4725,72.5150
74.4839,72.4576
74.5164,72.4089
74.5651,72.3764
74.6225,72.3650
76.2725,72.3650
76.3299,72.3764
76.3786,72.4089
76.4111,72.4576
76.4225,72.5150
76.4225,72.8150
76.4111,72.8724
76.3786,72.9211
76.3299,72.9536
76.2725,72.9650
74.6225,72.9650
74.5651,72.9536
74.5164,72.9211
74.4839,72.8724
74.4725,72.8150
Z" /> 
<path style="fill:#B4A09A; fill-opacity:0.9000; stroke:none;fill-rule:evenodd;"
d="M 74.4725,73.7850
74.4839,73.7276
74.5164,73.6789
74.5651,73.6464
74.6225,73.6350
76.2725,73.6350
76.3299,73.6464
76.3786,73.6789
76.4111,73.7276
76.4225,73.7850
76.4225,74.0850
76.4111,74.1424
76.3786,74.1911
76.3299,74.2236
76.2725,74.2350
74.6225,74.2350
74.5651,74.2236
74.5164,74.1911
74.4839,74.1424
74.4725,74.0850
Z" /> 
<path style="fill:#B4A09A; fill-opacity:0.9000; stroke:none;fill-rule:evenodd;"
d="M 74.4725,75.0550
74.4839,74.9976
74.5164,74.9489
74.5651,74.9164
74.6225,74.9050
76.2725,74.9050
76.3299,74.9164
76.3786,74.9489
76.4111,74.9976
76.4225,75.0550
76.4225,75.3550
76.4111,75.4124
76.3786,75.4611
76.3299,75.4936
76.2725,75.5050
74.6225,75.5050
74.5651,75.4936
74.5164,75.4611
74.4839,75.4124
74.4725,75.3550
Z" /> 
<path style="fill:#B4A09A; fill-opacity:0.9000; stroke:none;fill-rule:evenodd;"
d="M 74.4725,76.3250
74.4839,76.2676
74.5164,76.2189
74.5651,76.1864
74.6225,76.1750
76.2725,76.1750
76.3299,76.1864
76.3786,76.2189
76.4111,76.2676
76.4225,76.3250
76.4225,76.6250
76.4111,76.6824
76.3786,76.7311
76.3299,76.7636
76.2725,76.7750
74.6225,76.7750
74.5651,76.7636
74.5164,76.7311
74.4839,76.6824
74.4725,76.6250
Z" /> 
<path style="fill:#B4A09A; fill-opacity:0.9000; stroke:none;fill-rule:evenodd;"
d="M 74.4725,77.5950
74.4839,77.5376
74.5164,77.4889
74.5651,77.4564
74.6225,77.4450
76.2725,77.4450
76.3299,77.4564
76.3786,77.4889
76.4111,77.5376
76.4225,77.5950
76.4225,77.8950
76.4111,77.9524
76.3786,78.0011
76.3299,78.0336
76.2725,78.0450
74.6225,78.0450
74.5651,78.0336
74.5164,78.0011
74.4839,77.9524
74.4725,77.8950
Z" /> 
<path style="fill:#B4A09A; fill-opacity:0.9000; stroke:none;fill-rule:evenodd;"
d="M 79.4225,77.5950
79.4339,77.5376
79.4664,77.4889
79.5151,77.4564
79.5725,77.4450
81.2225,77.4450
81.2799,77.4564
81.3286,77.4889
81.3611,77.5376
81.3725,77.5950
81.3725,77.8950
81.3611,77.9524
81.3286,78.0011
81.2799,78.0336
81.2225,78.0450
79.5725,78.0450
79.5151,78.0336
79.4664,78.0011
79.4339,77.9524
79.4225,77.8950
Z" /> 
<path style="fill:#B4A09A; fill-opacity:0.9000; stroke:none;fill-rule:evenodd;"
d="M 79.4225,76.3250
79.4339,76.2676
79.4664,76.2189
79.5151,76.1864
79.5725,76.1750
81.2225,76.1750
81.2799,76.1864
81.3286,76.2189
81.3611,76.2676
81.3725,76.3250
81.3725,76.6250
81.3611,76.6824
81.3286,76.7311
81.2799,76.7636
81.2225,76.7750
79.5725,76.7750
79.5151,76.7636
79.4664,76.7311
79.4339,76.6824
79.4225,76.6250
Z" /> 
<path style="fill:#B4A09A; fill-opacity:0.9000; stroke:none;fill-rule:evenodd;"
d="M 79.4225,75.0550
79.4339,74.9976
79.4664,74.9489
79.5151,74.9164
79.5725,74.9050
81.2225,74.9050
81.2799,74.9164
81.3286,74.9489
81.3611,74.9976
81.3725,75.0550
81.3725,75.3550
81.3611,75.4124
81.3286,75.4611
81.2799,75.4936
81.2225,75.5050
79.5725,75.5050
79.5151,75.4936
79.4664,75.4611
79.4339,75.4124
79.4225,75.3550
Z" /> 
<path style="fill:#B4A09A; fill-opacity:0.9000; stroke:none;fill-rule:evenodd;"
d="M 79.4225,73.7850
79.4339,73.7276
79.4664,73.6789
79.5151,73.6464
79.5725,73.6350
81.2225,73.6350
81.2799,73.6464
81.3286,73.6789
81.3611,73.7276
81.3725,73.7850
81.3725,74.0850
81.3611,74.1424
81.3286,74.1911
81.2799,74.2236
81.2225,74.2350
79.5725,74.2350
79.5151,74.2236
79.4664,74.1911
79.4339,74.1424
79.4225,74.0850
Z" /> 
<path style="fill:#B4A09A; fill-opacity:0.9000; stroke:none;fill-rule:evenodd;"
d="M 79.4225,72.5150
79.4339,72.4576
79.4664,72.4089
79.5151,72.3764
79.5725,72.3650
81.2225,72.3650
81.2799,72.3764
81.3286,72.4089
81.3611,72.4576
81.3725,72.5150
81.3725,72.8150
81.3611,72.8724
81.3286,72.9211
81.2799,72.9536
81.2225,72.9650
79.5725,72.9650
79.5151,72.9536
79.4664,72.9211
79.4339,72.8724
79.4225,72.8150
Z" /> 
<path style="fill:#B4A09A; fill-opacity:0.9000; stroke:none;fill-rule:evenodd;"
d="M 79.4225,71.2450
79.4339,71.1876
79.4664,71.1389
79.5151,71.1064
79.5725,71.0950
81.2225,71.0950
81.2799,71.1064
81.3286,71.1389
81.3611,71.1876
81.3725,71.2450
81.3725,71.5450
81.3611,71.6024
81.3286,71.6511
81.2799,71.6836
81.2225,71.6950
79.5725,71.6950
79.5151,71.6836
79.4664,71.6511
79.4339,71.6024
79.4225,71.5450
Z" /> 
<path style="fill:#B4A09A; fill-opacity:0.9000; stroke:none;fill-rule:evenodd;"
d="M 79.4225,69.9750
79.4339,69.9176
79.4664,69.8689
79.5151,69.8364
79.5725,69.8250
81.2225,69.8250
81.2799,69.8364
81.3286,69.8689
81.3611,69.9176
81.3725,69.9750
81.3725,70.2750
81.3611,70.3324
81.3286,70.3811
81.2799,70.4136
81.2225,70.4250
79.5725,70.4250
79.5151,70.4136
79.4664,70.3811
79.4339,70.3324
79.4225,70.2750
Z" /> 
<path style="fill:#B4A09A; fill-opacity:0.9000; stroke:none;fill-rule:evenodd;"
d="M 48.0405,69.6240
47.9448,69.6050
47.8637,69.5508
47.8095,69.4697
47.7905,69.3740
47.7905,68.8490
47.8095,68.7533
47.8637,68.6722
47.9448,68.6180
48.0405,68.5990
48.9405,68.5990
49.0362,68.6180
49.1173,68.6722
49.1715,68.7533
49.1905,68.8490
49.1905,69.3740
49.1715,69.4697
49.1173,69.5508
49.0362,69.6050
48.9405,69.6240
Z" /> 
<path style="fill:#B4A09A; fill-opacity:0.9000; stroke:none;fill-rule:evenodd;"
d="M 48.0405,67.7990
47.9448,67.7800
47.8637,67.7258
47.8095,67.6447
47.7905,67.5490
47.7905,67.0240
47.8095,66.9283
47.8637,66.8472
47.9448,66.7930
48.0405,66.7740
48.9405,66.7740
49.0362,66.7930
49.1173,66.8472
49.1715,66.9283
49.1905,67.0240
49.1905,67.5490
49.1715,67.6447
49.1173,67.7258
49.0362,67.7800
48.9405,67.7990
Z" /> 
<path style="fill:#B4A09A; fill-opacity:0.9000; stroke:none;fill-rule:evenodd;"
d="M 48.3055,35.7860
48.4012,35.8050
48.4823,35.8592
48.5365,35.9403
48.5555,36.0360
48.5555,36.5610
48.5365,36.6567
48.4823,36.7378
48.4012,36.7920
48.3055,36.8110
47.4055,36.8110
47.3098,36.7920
47.2287,36.7378
47.1745,36.6567
47.1555,36.5610
47.1555,36.0360
47.1745,35.9403
47.2287,35.8592
47.3098,35.8050
47.4055,35.7860
Z" /> 
<path style="fill:#B4A09A; fill-opacity:0.9000; stroke:none;fill-rule:evenodd;"
d="M 48.3055,37.6110
48.4012,37.6300
48.4823,37.6842
48.5365,37.7653
48.5555,37.8610
48.5555,38.3860
48.5365,38.4817
48.4823,38.5628
48.4012,38.6170
48.3055,38.6360
47.4055,38.6360
47.3098,38.6170
47.2287,38.5628
47.1745,38.4817
47.1555,38.3860
47.1555,37.8610
47.1745,37.7653
47.2287,37.6842
47.3098,37.6300
47.4055,37.6110
Z" /> 
<path style="fill:#B4A09A; fill-opacity:0.9000; stroke:none;fill-rule:evenodd;"
d="M 32.4135,20.0510
32.4325,19.9553
32.4867,19.8742
32.5678,19.8200
32.6635,19.8010
34.6635,19.8010
34.7592,19.8200
34.8403,19.8742
34.8945,19.9553
34.9135,20.0510
34.9135,21.3510
34.8945,21.4467
34.8403,21.5278
34.7592,21.5820
34.6635,21.6010
32.6635,21.6010
32.5678,21.5820
32.4867,21.5278
32.4325,21.4467
32.4135,21.3510
Z" /> 
<path style="fill:#B4A09A; fill-opacity:0.9000; stroke:none;fill-rule:evenodd;"
d="M 36.4135,20.0510
36.4325,19.9553
36.4867,19.8742
36.5678,19.8200
36.6635,19.8010
38.6635,19.8010
38.7592,19.8200
38.8403,19.8742
38.8945,19.9553
38.9135,20.0510
38.9135,21.3510
38.8945,21.4467
38.8403,21.5278
38.7592,21.5820
38.6635,21.6010
36.6635,21.6010
36.5678,21.5820
36.4867,21.5278
36.4325,21.4467
36.4135,21.3510
Z" /> 
<path style="fill:#B4A09A; fill-opacity:0.9000; stroke:none;fill-rule:evenodd;"
d="M 83.3475,65.6650
83.3646,65.5789
83.4134,65.5059
83.4864,65.4571
83.5725,65.4400
84.0225,65.4400
84.1086,65.4571
84.1816,65.5059
84.2304,65.5789
84.2475,65.6650
84.2475,66.4150
84.2304,66.5011
84.1816,66.5741
84.1086,66.6229
84.0225,66.6400
83.5725,66.6400
83.4864,66.6229
83.4134,66.5741
83.3646,66.5011
83.3475,66.4150
Z" /> 
<path style="fill:#B4A09A; fill-opacity:0.9000; stroke:none;fill-rule:evenodd;"
d="M 86.6475,65.6650
86.6646,65.5789
86.7134,65.5059
86.7864,65.4571
86.8725,65.4400
87.3225,65.4400
87.4086,65.4571
87.4816,65.5059
87.5304,65.5789
87.5475,65.6650
87.5475,66.4150
87.5304,66.5011
87.4816,66.5741
87.4086,66.6229
87.3225,66.6400
86.8725,66.6400
86.7864,66.6229
86.7134,66.5741
86.6646,66.5011
86.6475,66.4150
Z" /> 
<path style="fill:#B4A09A; fill-opacity:0.9000; stroke:none;fill-rule:evenodd;"
d="M 38.3690,23.8010
38.4647,23.8200
38.5458,23.8742
38.6000,23.9553
38.6190,24.0510
38.6190,26.0510
38.6000,26.1467
38.5458,26.2278
38.4647,26.2820
38.3690,26.3010
37.0690,26.3010
36.9733,26.2820
36.8922,26.2278
36.8380,26.1467
36.8190,26.0510
36.8190,24.0510
36.8380,23.9553
36.8922,23.8742
36.9733,23.8200
37.0690,23.8010
Z" /> 
<path style="fill:#B4A09A; fill-opacity:0.9000; stroke:none;fill-rule:evenodd;"
d="M 38.3690,27.8010
38.4647,27.8200
38.5458,27.8742
38.6000,27.9553
38.6190,28.0510
38.6190,30.0510
38.6000,30.1467
38.5458,30.2278
38.4647,30.2820
38.3690,30.3010
37.0690,30.3010
36.9733,30.2820
36.8922,30.2278
36.8380,30.1467
36.8190,30.0510
36.8190,28.0510
36.8380,27.9553
36.8922,27.8742
36.9733,27.8200
37.0690,27.8010
Z" /> 
<path style="fill:#B4A09A; fill-opacity:0.9000; stroke:none;fill-rule:evenodd;"
d="M 97.8655,27.5365
97.7698,27.5175
97.6887,27.4633
97.6345,27.3822
97.6155,27.2865
97.6155,26.5615
97.6345,26.4658
97.6887,26.3847
97.7698,26.3305
97.8655,26.3115
100.7155,26.3115
100.8112,26.3305
100.8923,26.3847
100.9465,26.4658
100.9655,26.5615
100.9655,27.2865
100.9465,27.3822
100.8923,27.4633
100.8112,27.5175
100.7155,27.5365
Z" /> 
<path style="fill:#B4A09A; fill-opacity:0.9000; stroke:none;fill-rule:evenodd;"
d="M 97.8655,21.6115
97.7698,21.5925
97.6887,21.5383
97.6345,21.4572
97.6155,21.3615
97.6155,20.6365
97.6345,20.5408
97.6887,20.4597
97.7698,20.4055
97.8655,20.3865
100.7155,20.3865
100.8112,20.4055
100.8923,20.4597
100.9465,20.5408
100.9655,20.6365
100.9655,21.3615
100.9465,21.4572
100.8923,21.5383
100.8112,21.5925
100.7155,21.6115
Z" /> 
<path style="fill:#B4A09A; fill-opacity:0.9000; stroke:none;fill-rule:evenodd;"
d="M 42.5365,13.3870
42.6322,13.4060
42.7133,13.4602
42.7675,13.5413
42.7865,13.6370
42.7865,15.6370
42.7675,15.7327
42.7133,15.8138
42.6322,15.8680
42.5365,15.8870
41.2365,15.8870
41.1408,15.8680
41.0597,15.8138
41.0055,15.7327
40.9865,15.6370
40.9865,13.6370
41.0055,13.5413
41.0597,13.4602
41.1408,13.4060
41.2365,13.3870
Z" /> 
<path style="fill:#B4A09A; fill-opacity:0.9000; stroke:none;fill-rule:evenodd;"
d="M 42.5365,17.3870
42.6322,17.4060
42.7133,17.4602
42.7675,17.5413
42.7865,17.6370
42.7865,19.6370
42.7675,19.7327
42.7133,19.8138
42.6322,19.8680
42.5365,19.8870
41.2365,19.8870
41.1408,19.8680
41.0597,19.8138
41.0055,19.7327
40.9865,19.6370
40.9865,17.6370
41.0055,17.5413
41.0597,17.4602
41.1408,17.4060
41.2365,17.3870
Z" /> 
<path style="fill:#B4A09A; fill-opacity:0.9000; stroke:none;fill-rule:evenodd;"
d="M 83.9020,81.8820
83.9191,81.7959
83.9679,81.7229
84.0409,81.6741
84.1270,81.6570
84.5770,81.6570
84.6631,81.6741
84.7361,81.7229
84.7849,81.7959
84.8020,81.8820
84.8020,82.6320
84.7849,82.7181
84.7361,82.7911
84.6631,82.8399
84.5770,82.8570
84.1270,82.8570
84.0409,82.8399
83.9679,82.7911
83.9191,82.7181
83.9020,82.6320
Z" /> 
<path style="fill:#B4A09A; fill-opacity:0.9000; stroke:none;fill-rule:evenodd;"
d="M 87.2020,81.8820
87.2191,81.7959
87.2679,81.7229
87.3409,81.6741
87.4270,81.6570
87.8770,81.6570
87.9631,81.6741
88.0361,81.7229
88.0849,81.7959
88.1020,81.8820
88.1020,82.6320
88.0849,82.7181
88.0361,82.7911
87.9631,82.8399
87.8770,82.8570
87.4270,82.8570
87.3409,82.8399
87.2679,82.7911
87.2191,82.7181
87.2020,82.6320
Z" /> 
<path style="fill:#B4A09A; fill-opacity:0.9000; stroke:none;fill-rule:evenodd;"
d="M 46.6545,66.7740
46.7502,66.7930
46.8313,66.8472
46.8855,66.9283
46.9045,67.0240
46.9045,67.5490
46.8855,67.6447
46.8313,67.7258
46.7502,67.7800
46.6545,67.7990
45.7545,67.7990
45.6588,67.7800
45.5777,67.7258
45.5235,67.6447
45.5045,67.5490
45.5045,67.0240
45.5235,66.9283
45.5777,66.8472
45.6588,66.7930
45.7545,66.7740
Z" /> 
<path style="fill:#B4A09A; fill-opacity:0.9000; stroke:none;fill-rule:evenodd;"
d="M 46.6545,68.5990
46.7502,68.6180
46.8313,68.6722
46.8855,68.7533
46.9045,68.8490
46.9045,69.3740
46.8855,69.4697
46.8313,69.5508
46.7502,69.6050
46.6545,69.6240
45.7545,69.6240
45.6588,69.6050
45.5777,69.5508
45.5235,69.4697
45.5045,69.3740
45.5045,68.8490
45.5235,68.7533
45.5777,68.6722
45.6588,68.6180
45.7545,68.5990
Z" /> 
<path style="fill:#B4A09A; fill-opacity:0.9000; stroke:none;fill-rule:evenodd;"
d="M 76.7955,21.9240
76.8912,21.9430
76.9723,21.9972
77.0265,22.0783
77.0455,22.1740
77.0455,25.1740
77.0265,25.2697
76.9723,25.3508
76.8912,25.4050
76.7955,25.4240
74.7955,25.4240
74.6998,25.4050
74.6187,25.3508
74.5645,25.2697
74.5455,25.1740
74.5455,22.1740
74.5645,22.0783
74.6187,21.9972
74.6998,21.9430
74.7955,21.9240
Z" /> 
<path style="fill:#B4A09A; fill-opacity:0.9000; stroke:none;fill-rule:evenodd;"
d="M 76.7955,28.4240
76.8912,28.4430
76.9723,28.4972
77.0265,28.5783
77.0455,28.6740
77.0455,31.6740
77.0265,31.7697
76.9723,31.8508
76.8912,31.9050
76.7955,31.9240
74.7955,31.9240
74.6998,31.9050
74.6187,31.8508
74.5645,31.7697
74.5455,31.6740
74.5455,28.6740
74.5645,28.5783
74.6187,28.4972
74.6998,28.4430
74.7955,28.4240
Z" /> 
<path style="fill:#B4A09A; fill-opacity:0.9000; stroke:none;fill-rule:evenodd;"
d="M 57.3525,90.8630
57.3715,90.7673
57.4257,90.6862
57.5068,90.6320
57.6025,90.6130
58.1275,90.6130
58.2232,90.6320
58.3043,90.6862
58.3585,90.7673
58.3775,90.8630
58.3775,91.7630
58.3585,91.8587
58.3043,91.9398
58.2232,91.9940
58.1275,92.0130
57.6025,92.0130
57.5068,91.9940
57.4257,91.9398
57.3715,91.8587
57.3525,91.7630
Z" /> 
<path style="fill:#B4A09A; fill-opacity:0.9000; stroke:none;fill-rule:evenodd;"
d="M 59.1775,90.8630
59.1965,90.7673
59.2507,90.6862
59.3318,90.6320
59.4275,90.6130
59.9525,90.6130
60.0482,90.6320
60.1293,90.6862
60.1835,90.7673
60.2025,90.8630
60.2025,91.7630
60.1835,91.8587
60.1293,91.9398
60.0482,91.9940
59.9525,92.0130
59.4275,92.0130
59.3318,91.9940
59.2507,91.9398
59.1965,91.8587
59.1775,91.7630
Z" /> 
<path style="fill:#B4A09A; fill-opacity:0.9000; stroke:none;fill-rule:evenodd;"
d="M 59.4745,65.5575
59.4555,65.6532
59.4013,65.7343
59.3202,65.7885
59.2245,65.8075
58.6995,65.8075
58.6038,65.7885
58.5227,65.7343
58.4685,65.6532
58.4495,65.5575
58.4495,64.6575
58.4685,64.5618
58.5227,64.4807
58.6038,64.4265
58.6995,64.4075
59.2245,64.4075
59.3202,64.4265
59.4013,64.4807
59.4555,64.5618
59.4745,64.6575
Z" /> 
<path style="fill:#B4A09A; fill-opacity:0.9000; stroke:none;fill-rule:evenodd;"
d="M 57.6495,65.5575
57.6305,65.6532
57.5763,65.7343
57.4952,65.7885
57.3995,65.8075
56.8745,65.8075
56.7788,65.7885
56.6977,65.7343
56.6435,65.6532
56.6245,65.5575
56.6245,64.6575
56.6435,64.5618
56.6977,64.4807
56.7788,64.4265
56.8745,64.4075
57.3995,64.4075
57.4952,64.4265
57.5763,64.4807
57.6305,64.5618
57.6495,64.6575
Z" /> 
<path style="fill:#B4A09A; fill-opacity:0.9000; stroke:none;fill-rule:evenodd;"
d="M 83.1955,27.5365
83.0998,27.5175
83.0187,27.4633
82.9645,27.3822
82.9455,27.2865
82.9455,26.5615
82.9645,26.4658
83.0187,26.3847
83.0998,26.3305
83.1955,26.3115
86.0455,26.3115
86.1412,26.3305
86.2223,26.3847
86.2765,26.4658
86.2955,26.5615
86.2955,27.2865
86.2765,27.3822
86.2223,27.4633
86.1412,27.5175
86.0455,27.5365
Z" /> 
<path style="fill:#B4A09A; fill-opacity:0.9000; stroke:none;fill-rule:evenodd;"
d="M 83.1955,21.6115
83.0998,21.5925
83.0187,21.5383
82.9645,21.4572
82.9455,21.3615
82.9455,20.6365
82.9645,20.5408
83.0187,20.4597
83.0998,20.4055
83.1955,20.3865
86.0455,20.3865
86.1412,20.4055
86.2223,20.4597
86.2765,20.5408
86.2955,20.6365
86.2955,21.3615
86.2765,21.4572
86.2223,21.5383
86.1412,21.5925
86.0455,21.6115
Z" /> 
<path style="fill:#B4A09A; fill-opacity:0.9000; stroke:none;fill-rule:evenodd;"
d="M 83.3475,68.2050
83.3646,68.1189
83.4134,68.0459
83.4864,67.9971
83.5725,67.9800
84.0225,67.9800
84.1086,67.9971
84.1816,68.0459
84.2304,68.1189
84.2475,68.2050
84.2475,68.9550
84.2304,69.0411
84.1816,69.1141
84.1086,69.1629
84.0225,69.1800
83.5725,69.1800
83.4864,69.1629
83.4134,69.1141
83.3646,69.0411
83.3475,68.9550
Z" /> 
<path style="fill:#B4A09A; fill-opacity:0.9000; stroke:none;fill-rule:evenodd;"
d="M 86.6475,68.2050
86.6646,68.1189
86.7134,68.0459
86.7864,67.9971
86.8725,67.9800
87.3225,67.9800
87.4086,67.9971
87.4816,68.0459
87.5304,68.1189
87.5475,68.2050
87.5475,68.9550
87.5304,69.0411
87.4816,69.1141
87.4086,69.1629
87.3225,69.1800
86.8725,69.1800
86.7864,69.1629
86.7134,69.1141
86.6646,69.0411
86.6475,68.9550
Z" /> 
<path style="fill:#B4A09A; fill-opacity:0.9000; stroke:none;fill-rule:evenodd;"
d="M 59.6995,88.1910
59.6038,88.1720
59.5227,88.1178
59.4685,88.0367
59.4495,87.9410
59.4495,87.4410
59.4685,87.3453
59.5227,87.2642
59.6038,87.2100
59.6995,87.1910
60.6495,87.1910
60.7452,87.2100
60.8263,87.2642
60.8805,87.3453
60.8995,87.4410
60.8995,87.9410
60.8805,88.0367
60.8263,88.1178
60.7452,88.1720
60.6495,88.1910
Z" /> 
<path style="fill:#B4A09A; fill-opacity:0.9000; stroke:none;fill-rule:evenodd;"
d="M 59.6995,86.2910
59.6038,86.2720
59.5227,86.2178
59.4685,86.1367
59.4495,86.0410
59.4495,85.5410
59.4685,85.4453
59.5227,85.3642
59.6038,85.3100
59.6995,85.2910
60.6495,85.2910
60.7452,85.3100
60.8263,85.3642
60.8805,85.4453
60.8995,85.5410
60.8995,86.0410
60.8805,86.1367
60.8263,86.2178
60.7452,86.2720
60.6495,86.2910
Z" /> 
<path style="fill:#B4A09A; fill-opacity:0.9000; stroke:none;fill-rule:evenodd;"
d="M 38.9135,7.1270
38.8945,7.2227
38.8403,7.3038
38.7592,7.3580
38.6635,7.3770
36.6635,7.3770
36.5678,7.3580
36.4867,7.3038
36.4325,7.2227
36.4135,7.1270
36.4135,5.8270
36.4325,5.7313
36.4867,5.6502
36.5678,5.5960
36.6635,5.5770
38.6635,5.5770
38.7592,5.5960
38.8403,5.6502
38.8945,5.7313
38.9135,5.8270
Z" /> 
<path style="fill:#B4A09A; fill-opacity:0.9000; stroke:none;fill-rule:evenodd;"
d="M 34.9135,7.1270
34.8945,7.2227
34.8403,7.3038
34.7592,7.3580
34.6635,7.3770
32.6635,7.3770
32.5678,7.3580
32.4867,7.3038
32.4325,7.2227
32.4135,7.1270
32.4135,5.8270
32.4325,5.7313
32.4867,5.6502
32.5678,5.5960
32.6635,5.5770
34.6635,5.5770
34.7592,5.5960
34.8403,5.6502
34.8945,5.7313
34.9135,5.8270
Z" /> 
<path style="fill:#B4A09A; fill-opacity:0.9000; stroke:none;fill-rule:evenodd;"
d="M 69.2995,38.4530
69.3185,38.3573
69.3727,38.2762
69.4538,38.2220
69.5495,38.2030
70.2745,38.2030
70.3702,38.2220
70.4513,38.2762
70.5055,38.3573
70.5245,38.4530
70.5245,41.3030
70.5055,41.3987
70.4513,41.4798
70.3702,41.5340
70.2745,41.5530
69.5495,41.5530
69.4538,41.5340
69.3727,41.4798
69.3185,41.3987
69.2995,41.3030
Z" /> 
<path style="fill:#B4A09A; fill-opacity:0.9000; stroke:none;fill-rule:evenodd;"
d="M 75.2245,38.4530
75.2435,38.3573
75.2977,38.2762
75.3788,38.2220
75.4745,38.2030
76.1995,38.2030
76.2952,38.2220
76.3763,38.2762
76.4305,38.3573
76.4495,38.4530
76.4495,41.3030
76.4305,41.3987
76.3763,41.4798
76.2952,41.5340
76.1995,41.5530
75.4745,41.5530
75.3788,41.5340
75.2977,41.4798
75.2435,41.3987
75.2245,41.3030
Z" /> 
<path style="fill:#B4A09A; fill-opacity:0.9000; stroke:none;fill-rule:evenodd;"
d="M 41.6555,45.9530
41.7129,45.9644
41.7616,45.9969
41.7941,46.0456
41.8055,46.1030
41.8055,47.7530
41.7941,47.8104
41.7616,47.8591
41.7129,47.8916
41.6555,47.9030
41.3555,47.9030
41.2981,47.8916
41.2494,47.8591
41.2169,47.8104
41.2055,47.7530
41.2055,46.1030
41.2169,46.0456
41.2494,45.9969
41.2981,45.9644
41.3555,45.9530
Z" /> 
<path style="fill:#B4A09A; fill-opacity:0.9000; stroke:none;fill-rule:evenodd;"
d="M 40.3855,45.9530
40.4429,45.9644
40.4916,45.9969
40.5241,46.0456
40.5355,46.1030
40.5355,47.7530
40.5241,47.8104
40.4916,47.8591
40.4429,47.8916
40.3855,47.9030
40.0855,47.9030
40.0281,47.8916
39.9794,47.8591
39.9469,47.8104
39.9355,47.7530
39.9355,46.1030
39.9469,46.0456
39.9794,45.9969
40.0281,45.9644
40.0855,45.9530
Z" /> 
<path style="fill:#B4A09A; fill-opacity:0.9000; stroke:none;fill-rule:evenodd;"
d="M 39.1155,45.9530
39.1729,45.9644
39.2216,45.9969
39.2541,46.0456
39.2655,46.1030
39.2655,47.7530
39.2541,47.8104
39.2216,47.8591
39.1729,47.8916
39.1155,47.9030
38.8155,47.9030
38.7581,47.8916
38.7094,47.8591
38.6769,47.8104
38.6655,47.7530
38.6655,46.1030
38.6769,46.0456
38.7094,45.9969
38.7581,45.9644
38.8155,45.9530
Z" /> 
<path style="fill:#B4A09A; fill-opacity:0.9000; stroke:none;fill-rule:evenodd;"
d="M 37.8455,45.9530
37.9029,45.9644
37.9516,45.9969
37.9841,46.0456
37.9955,46.1030
37.9955,47.7530
37.9841,47.8104
37.9516,47.8591
37.9029,47.8916
37.8455,47.9030
37.5455,47.9030
37.4881,47.8916
37.4394,47.8591
37.4069,47.8104
37.3955,47.7530
37.3955,46.1030
37.4069,46.0456
37.4394,45.9969
37.4881,45.9644
37.5455,45.9530
Z" /> 
<path style="fill:#B4A09A; fill-opacity:0.9000; stroke:none;fill-rule:evenodd;"
d="M 37.8455,50.9030
37.9029,50.9144
37.9516,50.9469
37.9841,50.9956
37.9955,51.0530
37.9955,52.7030
37.9841,52.7604
37.9516,52.8091
37.9029,52.8416
37.8455,52.8530
37.5455,52.8530
37.4881,52.8416
37.4394,52.8091
37.4069,52.7604
37.3955,52.7030
37.3955,51.0530
37.4069,50.9956
37.4394,50.9469
37.4881,50.9144
37.5455,50.9030
Z" /> 
<path style="fill:#B4A09A; fill-opacity:0.9000; stroke:none;fill-rule:evenodd;"
d="M 39.1155,50.9030
39.1729,50.9144
39.2216,50.9469
39.2541,50.9956
39.2655,51.0530
39.2655,52.7030
39.2541,52.7604
39.2216,52.8091
39.1729,52.8416
39.1155,52.8530
38.8155,52.8530
38.7581,52.8416
38.7094,52.8091
38.6769,52.7604
38.6655,52.7030
38.6655,51.0530
38.6769,50.9956
38.7094,50.9469
38.7581,50.9144
38.8155,50.9030
Z" /> 
<path style="fill:#B4A09A; fill-opacity:0.9000; stroke:none;fill-rule:evenodd;"
d="M 40.3855,50.9030
40.4429,50.9144
40.4916,50.9469
40.5241,50.9956
40.5355,51.0530
40.5355,52.7030
40.5241,52.7604
40.4916,52.8091
40.4429,52.8416
40.3855,52.8530
40.0855,52.8530
40.0281,52.8416
39.9794,52.8091
39.9469,52.7604
39.9355,52.7030
39.9355,51.0530
39.9469,50.9956
39.9794,50.9469
40.0281,50.9144
40.0855,50.9030
Z" /> 
<path style="fill:#B4A09A; fill-opacity:0.9000; stroke:none;fill-rule:evenodd;"
d="M 41.6555,50.9030
41.7129,50.9144
41.7616,50.9469
41.7941,50.9956
41.8055,51.0530
41.8055,52.7030
41.7941,52.7604
41.7616,52.8091
41.7129,52.8416
41.6555,52.8530
41.3555,52.8530
41.2981,52.8416
41.2494,52.8091
41.2169,52.7604
41.2055,52.7030
41.2055,51.0530
41.2169,50.9956
41.2494,50.9469
41.2981,50.9144
41.3555,50.9030
Z" /> 
<path style="fill:#B4A09A; fill-opacity:0.9000; stroke:none;fill-rule:evenodd;"
d="M 32.4135,16.1140
32.4325,16.0183
32.4867,15.9372
32.5678,15.8830
32.6635,15.8640
34.6635,15.8640
34.7592,15.8830
34.8403,15.9372
34.8945,16.0183
34.9135,16.1140
34.9135,17.4140
34.8945,17.5097
34.8403,17.5908
34.7592,17.6450
34.6635,17.6640
32.6635,17.6640
32.5678,17.6450
32.4867,17.5908
32.4325,17.5097
32.4135,17.4140
Z" /> 
<path style="fill:#B4A09A; fill-opacity:0.9000; stroke:none;fill-rule:evenodd;"
d="M 36.4135,16.1140
36.4325,16.0183
36.4867,15.9372
36.5678,15.8830
36.6635,15.8640
38.6635,15.8640
38.7592,15.8830
38.8403,15.9372
38.8945,16.0183
38.9135,16.1140
38.9135,17.4140
38.8945,17.5097
38.8403,17.5908
38.7592,17.6450
38.6635,17.6640
36.6635,17.6640
36.5678,17.6450
36.4867,17.5908
36.4325,17.5097
36.4135,17.4140
Z" /> 
<path style="fill:#B4A09A; fill-opacity:0.9000; stroke:none;fill-rule:evenodd;"
d="M 49.6915,38.6360
49.5958,38.6170
49.5147,38.5628
49.4605,38.4817
49.4415,38.3860
49.4415,37.8610
49.4605,37.7653
49.5147,37.6842
49.5958,37.6300
49.6915,37.6110
50.5915,37.6110
50.6872,37.6300
50.7683,37.6842
50.8225,37.7653
50.8415,37.8610
50.8415,38.3860
50.8225,38.4817
50.7683,38.5628
50.6872,38.6170
50.5915,38.6360
Z" /> 
<path style="fill:#B4A09A; fill-opacity:0.9000; stroke:none;fill-rule:evenodd;"
d="M 49.6915,36.8110
49.5958,36.7920
49.5147,36.7378
49.4605,36.6567
49.4415,36.5610
49.4415,36.0360
49.4605,35.9403
49.5147,35.8592
49.5958,35.8050
49.6915,35.7860
50.5915,35.7860
50.6872,35.8050
50.7683,35.8592
50.8225,35.9403
50.8415,36.0360
50.8415,36.5610
50.8225,36.6567
50.7683,36.7378
50.6872,36.7920
50.5915,36.8110
Z" /> 
<path style="fill:#B4A09A; fill-opacity:0.9000; stroke:none;fill-rule:evenodd;"
d="M 61.6775,83.4160
61.6889,83.3586
61.7214,83.3099
61.7701,83.2774
61.8275,83.2660
63.4775,83.2660
63.5349,83.2774
63.5836,83.3099
63.6161,83.3586
63.6275,83.4160
63.6275,83.7160
63.6161,83.7734
63.5836,83.8221
63.5349,83.8546
63.4775,83.8660
61.8275,83.8660
61.7701,83.8546
61.7214,83.8221
61.6889,83.7734
61.6775,83.7160
Z" /> 
<path style="fill:#B4A09A; fill-opacity:0.9000; stroke:none;fill-rule:evenodd;"
d="M 61.6775,84.6860
61.6889,84.6286
61.7214,84.5799
61.7701,84.5474
61.8275,84.5360
63.4775,84.5360
63.5349,84.5474
63.5836,84.5799
63.6161,84.6286
63.6275,84.6860
63.6275,84.9860
63.6161,85.0434
63.5836,85.0921
63.5349,85.1246
63.4775,85.1360
61.8275,85.1360
61.7701,85.1246
61.7214,85.0921
61.6889,85.0434
61.6775,84.9860
Z" /> 
<path style="fill:#B4A09A; fill-opacity:0.9000; stroke:none;fill-rule:evenodd;"
d="M 61.6775,85.9560
61.6889,85.8986
61.7214,85.8499
61.7701,85.8174
61.8275,85.8060
63.4775,85.8060
63.5349,85.8174
63.5836,85.8499
63.6161,85.8986
63.6275,85.9560
63.6275,86.2560
63.6161,86.3134
63.5836,86.3621
63.5349,86.3946
63.4775,86.4060
61.8275,86.4060
61.7701,86.3946
61.7214,86.3621
61.6889,86.3134
61.6775,86.2560
Z" /> 
<path style="fill:#B4A09A; fill-opacity:0.9000; stroke:none;fill-rule:evenodd;"
d="M 61.6775,87.2260
61.6889,87.1686
61.7214,87.1199
61.7701,87.0874
61.8275,87.0760
63.4775,87.0760
63.5349,87.0874
63.5836,87.1199
63.6161,87.1686
63.6275,87.2260
63.6275,87.5260
63.6161,87.5834
63.5836,87.6321
63.5349,87.6646
63.4775,87.6760
61.8275,87.6760
61.7701,87.6646
61.7214,87.6321
61.6889,87.5834
61.6775,87.5260
Z" /> 
<path style="fill:#B4A09A; fill-opacity:0.9000; stroke:none;fill-rule:evenodd;"
d="M 61.6775,88.4960
61.6889,88.4386
61.7214,88.3899
61.7701,88.3574
61.8275,88.3460
63.4775,88.3460
63.5349,88.3574
63.5836,88.3899
63.6161,88.4386
63.6275,88.4960
63.6275,88.7960
63.6161,88.8534
63.5836,88.9021
63.5349,88.9346
63.4775,88.9460
61.8275,88.9460
61.7701,88.9346
61.7214,88.9021
61.6889,88.8534
61.6775,88.7960
Z" /> 
<path style="fill:#B4A09A; fill-opacity:0.9000; stroke:none;fill-rule:evenodd;"
d="M 61.6775,89.7660
61.6889,89.7086
61.7214,89.6599
61.7701,89.6274
61.8275,89.6160
63.4775,89.6160
63.5349,89.6274
63.5836,89.6599
63.6161,89.7086
63.6275,89.7660
63.6275,90.0660
63.6161,90.1234
63.5836,90.1721
63.5349,90.2046
63.4775,90.2160
61.8275,90.2160
61.7701,90.2046
61.7214,90.1721
61.6889,90.1234
61.6775,90.0660
Z" /> 
<path style="fill:#B4A09A; fill-opacity:0.9000; stroke:none;fill-rule:evenodd;"
d="M 61.6775,91.0360
61.6889,90.9786
61.7214,90.9299
61.7701,90.8974
61.8275,90.8860
63.4775,90.8860
63.5349,90.8974
63.5836,90.9299
63.6161,90.9786
63.6275,91.0360
63.6275,91.3360
63.6161,91.3934
63.5836,91.4421
63.5349,91.4746
63.4775,91.4860
61.8275,91.4860
61.7701,91.4746
61.7214,91.4421
61.6889,91.3934
61.6775,91.3360
Z" /> 
<path style="fill:#B4A09A; fill-opacity:0.9000; stroke:none;fill-rule:evenodd;"
d="M 66.6275,91.0360
66.6389,90.9786
66.6714,90.9299
66.7201,90.8974
66.7775,90.8860
68.4275,90.8860
68.4849,90.8974
68.5336,90.9299
68.5661,90.9786
68.5775,91.0360
68.5775,91.3360
68.5661,91.3934
68.5336,91.4421
68.4849,91.4746
68.4275,91.4860
66.7775,91.4860
66.7201,91.4746
66.6714,91.4421
66.6389,91.3934
66.6275,91.3360
Z" /> 
<path style="fill:#B4A09A; fill-opacity:0.9000; stroke:none;fill-rule:evenodd;"
d="M 66.6275,89.7660
66.6389,89.7086
66.6714,89.6599
66.7201,89.6274
66.7775,89.6160
68.4275,89.6160
68.4849,89.6274
68.5336,89.6599
68.5661,89.7086
68.5775,89.7660
68.5775,90.0660
68.5661,90.1234
68.5336,90.1721
68.4849,90.2046
68.4275,90.2160
66.7775,90.2160
66.7201,90.2046
66.6714,90.1721
66.6389,90.1234
66.6275,90.0660
Z" /> 
<path style="fill:#B4A09A; fill-opacity:0.9000; stroke:none;fill-rule:evenodd;"
d="M 66.6275,88.4960
66.6389,88.4386
66.6714,88.3899
66.7201,88.3574
66.7775,88.3460
68.4275,88.3460
68.4849,88.3574
68.5336,88.3899
68.5661,88.4386
68.5775,88.4960
68.5775,88.7960
68.5661,88.8534
68.5336,88.9021
68.4849,88.9346
68.4275,88.9460
66.7775,88.9460
66.7201,88.9346
66.6714,88.9021
66.6389,88.8534
66.6275,88.7960
Z" /> 
<path style="fill:#B4A09A; fill-opacity:0.9000; stroke:none;fill-rule:evenodd;"
d="M 66.6275,87.2260
66.6389,87.1686
66.6714,87.1199
66.7201,87.0874
66.7775,87.0760
68.4275,87.0760
68.4849,87.0874
68.5336,87.1199
68.5661,87.1686
68.5775,87.2260
68.5775,87.5260
68.5661,87.5834
68.5336,87.6321
68.4849,87.6646
68.4275,87.6760
66.7775,87.6760
66.7201,87.6646
66.6714,87.6321
66.6389,87.5834
66.6275,87.5260
Z" /> 
<path style="fill:#B4A09A; fill-opacity:0.9000; stroke:none;fill-rule:evenodd;"
d="M 66.6275,85.9560
66.6389,85.8986
66.6714,85.8499
66.7201,85.8174
66.7775,85.8060
68.4275,85.8060
68.4849,85.8174
68.5336,85.8499
68.5661,85.8986
68.5775,85.9560
68.5775,86.2560
68.5661,86.3134
68.5336,86.3621
68.4849,86.3946
68.4275,86.4060
66.7775,86.4060
66.7201,86.3946
66.6714,86.3621
66.6389,86.3134
66.6275,86.2560
Z" /> 
<path style="fill:#B4A09A; fill-opacity:0.9000; stroke:none;fill-rule:evenodd;"
d="M 66.6275,84.6860
66.6389,84.6286
66.6714,84.5799
66.7201,84.5474
66.7775,84.5360
68.4275,84.5360
68.4849,84.5474
68.5336,84.5799
68.5661,84.6286
68.5775,84.6860
68.5775,84.9860
68.5661,85.0434
68.5336,85.0921
68.4849,85.1246
68.4275,85.1360
66.7775,85.1360
66.7201,85.1246
66.6714,85.0921
66.6389,85.0434
66.6275,84.9860
Z" /> 
<path style="fill:#B4A09A; fill-opacity:0.9000; stroke:none;fill-rule:evenodd;"
d="M 66.6275,83.4160
66.6389,83.3586
66.6714,83.3099
66.7201,83.2774
66.7775,83.2660
68.4275,83.2660
68.4849,83.2774
68.5336,83.3099
68.5661,83.3586
68.5775,83.4160
68.5775,83.7160
68.5661,83.7734
68.5336,83.8221
68.4849,83.8546
68.4275,83.8660
66.7775,83.8660
66.7201,83.8546
66.6714,83.8221
66.6389,83.7734
66.6275,83.7160
Z" /> 
<path style="fill:#B4A09A; fill-opacity:0.9000; stroke:none;fill-rule:evenodd;"
d="M 72.3135,66.0990
72.3996,66.1161
72.4726,66.1649
72.5214,66.2379
72.5385,66.3240
72.5385,66.7740
72.5214,66.8601
72.4726,66.9331
72.3996,66.9819
72.3135,66.9990
71.5635,66.9990
71.4774,66.9819
71.4044,66.9331
71.3556,66.8601
71.3385,66.7740
71.3385,66.3240
71.3556,66.2379
71.4044,66.1649
71.4774,66.1161
71.5635,66.0990
Z" /> 
<path style="fill:#B4A09A; fill-opacity:0.9000; stroke:none;fill-rule:evenodd;"
d="M 72.3135,69.3990
72.3996,69.4161
72.4726,69.4649
72.5214,69.5379
72.5385,69.6240
72.5385,70.0740
72.5214,70.1601
72.4726,70.2331
72.3996,70.2819
72.3135,70.2990
71.5635,70.2990
71.4774,70.2819
71.4044,70.2331
71.3556,70.1601
71.3385,70.0740
71.3385,69.6240
71.3556,69.5379
71.4044,69.4649
71.4774,69.4161
71.5635,69.3990
Z" /> 
<path style="fill:#B4A09A; fill-opacity:0.9000; stroke:none;fill-rule:evenodd;"
d="M 58.2005,51.4630
58.1048,51.4440
58.0237,51.3898
57.9695,51.3087
57.9505,51.2130
57.9505,50.6880
57.9695,50.5923
58.0237,50.5112
58.1048,50.4570
58.2005,50.4380
59.1005,50.4380
59.1962,50.4570
59.2773,50.5112
59.3315,50.5923
59.3505,50.6880
59.3505,51.2130
59.3315,51.3087
59.2773,51.3898
59.1962,51.4440
59.1005,51.4630
Z" /> 
<path style="fill:#B4A09A; fill-opacity:0.9000; stroke:none;fill-rule:evenodd;"
d="M 58.2005,49.6380
58.1048,49.6190
58.0237,49.5648
57.9695,49.4837
57.9505,49.3880
57.9505,48.8630
57.9695,48.7673
58.0237,48.6862
58.1048,48.6320
58.2005,48.6130
59.1005,48.6130
59.1962,48.6320
59.2773,48.6862
59.3315,48.7673
59.3505,48.8630
59.3505,49.3880
59.3315,49.4837
59.2773,49.5648
59.1962,49.6190
59.1005,49.6380
Z" /> 
</g>
<g style="fill:none; 
stroke:#D0D2CD; stroke-width:0.0500; stroke-opacity:1; 
stroke-linecap:round; stroke-linejoin:round;">
<path d="M8.1805 94.9590
L8.1805 10.9590
" />
<path d="M16.1805 2.9590
L100.1805 2.9590
" />
<path d="M108.1805 10.9590
L108.1805 94.9590
" />
<path d="M108.1805 10.9590 A8.0000 8.0000 0.0 0 0 100.1805 2.9590" />
<path d="M100.1805 102.9590 A8.0000 8.0000 0.0 0 0 108.1805 94.9590" />
<path d="M100.1805 102.9590
L16.1805 102.9590
" />
<path d="M8.1805 94.9590 A8.0000 8.0000 0.0 0 0 16.1805 102.9590" />
<path d="M16.1805 2.9590 A8.0000 8.0000 0.0 0 0 8.1805 10.9590" />
</g> 
</svg>
