M48
; DRILL file {KiCad 8.0.2} date 2025-04-19T11:58:41+0200
; FORMAT={-:-/ absolute / inch / decimal}
; #@! TF.CreationDate,2025-04-19T11:58:41+02:00
; #@! TF.GenerationSoftware,Kicad,Pcbnew,8.0.2
; #@! TF.FileFunction,Plated,1,2,PTH
FMAT,2
INCH
; #@! TA.AperFunction,Plated,PTH,ViaDrill
T1C0.0118
; #@! TA.AperFunction,Plated,PTH,ComponentDrill
T2C0.0315
; #@! TA.AperFunction,Plated,PTH,ComponentDrill
T3C0.0394
; #@! TA.AperFunction,Plated,PTH,ComponentDrill
T4C0.0512
%
G90
G05
T1
X4.48Y-3.34
X4.665Y-3.34
X5.09Y-2.42
X5.605Y-4.935
X5.78Y-4.92
X5.9567Y-4.2205
X5.957Y-4.884
X6.085Y-4.305
X6.1181Y-4.935
X6.1281Y-4.835
X6.3404Y-4.5058
X6.3976Y-4.248
X6.42Y-4.42
X6.49Y-4.5044
X6.61Y-4.36
X6.61Y-4.44
X6.6351Y-4.5854
X6.7402Y-4.5551
X6.7441Y-4.3976
X6.7441Y-4.4685
X6.9567Y-4.5669
X7.0866Y-4.3425
X7.0945Y-4.2126
T2
X4.2207Y-1.8798
X4.2207Y-1.9798
X4.2257Y-2.2048
X4.2257Y-2.3048
X4.2291Y-2.54
X4.2291Y-2.64
X4.2807Y-3.6204
X4.2807Y-3.7204
X4.2807Y-3.8204
X4.2807Y-3.9204
X4.2807Y-4.0204
X4.2807Y-4.1204
X4.2807Y-4.2204
X4.2807Y-4.3204
X4.2807Y-4.4204
X4.5207Y-1.8798
X4.5207Y-1.9798
X4.5257Y-2.2048
X4.5257Y-2.3048
X4.5291Y-2.54
X4.5291Y-2.64
X4.5807Y-3.6204
X4.5807Y-3.7204
X4.5807Y-3.8204
X4.5807Y-3.9204
X4.5807Y-4.0204
X4.5807Y-4.1204
X4.5807Y-4.2204
X4.5807Y-4.3204
X4.5807Y-4.4204
X4.7874Y-4.0846
X4.7874Y-4.1846
X4.7874Y-4.2846
X4.7874Y-4.3846
X4.8474Y-2.8646
X4.8474Y-2.9646
X4.8474Y-3.0646
X4.8474Y-3.1646
X5.0874Y-4.0846
X5.0874Y-4.1846
X5.0874Y-4.2846
X5.0874Y-4.3846
X5.1474Y-2.8646
X5.1474Y-2.9646
X5.1474Y-3.0646
X5.1474Y-3.1646
X5.1624Y-3.3996
X5.1624Y-3.4996
X5.1624Y-3.5996
X5.1624Y-3.6996
X5.2457Y-1.8548
X5.2457Y-1.9548
X5.2474Y-2.4402
X5.2474Y-2.5402
X5.4624Y-3.3996
X5.4624Y-3.4996
X5.4624Y-3.5996
X5.4624Y-3.6996
X5.5037Y-4.3067
X5.5037Y-4.6067
X5.5457Y-1.8548
X5.5457Y-1.9548
X5.5474Y-2.4402
X5.5474Y-2.5402
X5.6037Y-4.3067
X5.6037Y-4.6067
X5.7037Y-4.3067
X5.7037Y-4.6067
X5.7882Y-4.0039
X5.8037Y-4.3067
X5.8037Y-4.6067
X5.8643Y-1.8817
X5.8643Y-2.1817
X5.8693Y-3.2917
X5.8693Y-3.5917
X5.9643Y-1.8817
X5.9643Y-2.1817
X5.9693Y-3.2917
X5.9693Y-3.5917
X6.0591Y-4.1386
X6.0591Y-4.5386
X6.1811Y-5.0874
X6.1811Y-5.4874
X6.1882Y-4.0039
X6.2724Y-4.9016
X6.3Y-5.2205
X6.3976Y-3.8346
X6.6622Y-4.6693
X6.6724Y-4.9016
X6.6819Y-4.4331
X6.7Y-5.2205
X6.7976Y-3.8346
X6.8031Y-4.8709
X6.8031Y-5.2709
X6.8137Y-1.8867
X6.8137Y-2.1867
X6.8437Y-2.7817
X6.8437Y-3.0817
X6.9134Y-3.926
X6.9134Y-4.326
X6.9137Y-1.8867
X6.9137Y-2.1867
X6.9437Y-2.7817
X6.9437Y-3.0817
X7.0137Y-1.8867
X7.0137Y-2.1867
X7.0437Y-2.7817
X7.0437Y-3.0817
X7.0622Y-4.6693
X7.0819Y-4.4331
X7.1137Y-1.8867
X7.1137Y-2.1867
X7.1437Y-2.7817
X7.1437Y-3.0817
X7.2276Y-3.815
X7.2276Y-3.915
X7.2276Y-4.015
X7.2276Y-4.115
X7.2276Y-4.215
X7.2276Y-4.315
X7.2276Y-4.415
X7.2276Y-4.515
X7.2276Y-4.615
X7.5276Y-3.815
X7.5276Y-3.915
X7.5276Y-4.015
X7.5276Y-4.115
X7.5276Y-4.215
X7.5276Y-4.315
X7.5276Y-4.415
X7.5276Y-4.515
X7.5276Y-4.615
T3
X4.2741Y-4.665
X4.9041Y-3.775
X5.5041Y-2.16
X5.5391Y-4.79
X5.7041Y-4.755
X5.7191Y-2.925
X5.7241Y-5.295
X6.0441Y-5.295
X6.0641Y-4.66
X6.1991Y-2.93
X6.3122Y-4.06
X6.3291Y-1.75
X6.363Y-4.7481
X6.4191Y-5.09
X6.5391Y-4.75
X6.5741Y-3.105
X7.4091Y-4.87
T4
X3.9021Y-1.9881
X3.9021Y-2.185
X3.9021Y-2.3819
X3.9041Y-2.94
X3.9041Y-3.14
X3.9041Y-3.34
X3.9041Y-3.54
X3.9091Y-4.4431
X3.9091Y-4.64
X3.9134Y-4.9724
X3.9134Y-5.1693
X3.9221Y-3.8766
X3.9221Y-4.0734
M30
