%TF.GenerationSoftware,KiCad,Pcbnew,8.0.2*%
%TF.CreationDate,2025-04-19T11:58:42+02:00*%
%TF.ProjectId,Patje zuig men kloten,5061746a-6520-47a7-9569-67206d656e20,rev?*%
%TF.SameCoordinates,Original*%
%TF.FileFunction,Drillmap*%
%TF.FilePolarity,Positive*%
%FSLAX45Y45*%
G04 Gerber Fmt 4.5, Leading zero omitted, Abs format (unit mm)*
G04 Created by KiCad (PCBNEW 8.0.2) date 2025-04-19 11:58:42*
%MOMM*%
%LPD*%
G01*
G04 APERTURE LIST*
%ADD10C,0.050000*%
%ADD11C,0.200000*%
%ADD12C,0.320000*%
G04 APERTURE END LIST*
D10*
X9377850Y-13420200D02*
X9377850Y-5020200D01*
X10177850Y-4220200D02*
X18577850Y-4220200D01*
X19377850Y-5020200D02*
X19377850Y-13420200D01*
X18577850Y-4220200D02*
G75*
G02*
X19377850Y-5020200I0J-800000D01*
G01*
X19377850Y-13420200D02*
G75*
G02*
X18577850Y-14220200I-800000J0D01*
G01*
X18577850Y-14220200D02*
X10177850Y-14220200D01*
X10177850Y-14220200D02*
G75*
G02*
X9377850Y-13420200I0J800000D01*
G01*
X9377850Y-5020200D02*
G75*
G02*
X10177850Y-4220200I800000J0D01*
G01*
D11*
D12*
X9680150Y-6571000D02*
X10000150Y-6891000D01*
X10000150Y-6571000D02*
X9680150Y-6891000D01*
X9870000Y-13660000D02*
X10190000Y-13980000D01*
X10190000Y-13660000D02*
X9870000Y-13980000D01*
X18608250Y-13556000D02*
X18928250Y-13876000D01*
X18928250Y-13556000D02*
X18608250Y-13876000D01*
X18684450Y-4589800D02*
X19004450Y-4909800D01*
X19004450Y-4589800D02*
X18684450Y-4909800D01*
D11*
X9636127Y-14534184D02*
X9636127Y-14334184D01*
X9636127Y-14334184D02*
X9683746Y-14334184D01*
X9683746Y-14334184D02*
X9712317Y-14343708D01*
X9712317Y-14343708D02*
X9731365Y-14362755D01*
X9731365Y-14362755D02*
X9740889Y-14381803D01*
X9740889Y-14381803D02*
X9750413Y-14419898D01*
X9750413Y-14419898D02*
X9750413Y-14448469D01*
X9750413Y-14448469D02*
X9740889Y-14486565D01*
X9740889Y-14486565D02*
X9731365Y-14505612D01*
X9731365Y-14505612D02*
X9712317Y-14524660D01*
X9712317Y-14524660D02*
X9683746Y-14534184D01*
X9683746Y-14534184D02*
X9636127Y-14534184D01*
X9836127Y-14534184D02*
X9836127Y-14400850D01*
X9836127Y-14438946D02*
X9845651Y-14419898D01*
X9845651Y-14419898D02*
X9855174Y-14410374D01*
X9855174Y-14410374D02*
X9874222Y-14400850D01*
X9874222Y-14400850D02*
X9893270Y-14400850D01*
X9959936Y-14534184D02*
X9959936Y-14400850D01*
X9959936Y-14334184D02*
X9950413Y-14343708D01*
X9950413Y-14343708D02*
X9959936Y-14353231D01*
X9959936Y-14353231D02*
X9969460Y-14343708D01*
X9969460Y-14343708D02*
X9959936Y-14334184D01*
X9959936Y-14334184D02*
X9959936Y-14353231D01*
X10083746Y-14534184D02*
X10064698Y-14524660D01*
X10064698Y-14524660D02*
X10055174Y-14505612D01*
X10055174Y-14505612D02*
X10055174Y-14334184D01*
X10188508Y-14534184D02*
X10169460Y-14524660D01*
X10169460Y-14524660D02*
X10159936Y-14505612D01*
X10159936Y-14505612D02*
X10159936Y-14334184D01*
X10417079Y-14534184D02*
X10417079Y-14334184D01*
X10417079Y-14334184D02*
X10483746Y-14477041D01*
X10483746Y-14477041D02*
X10550413Y-14334184D01*
X10550413Y-14334184D02*
X10550413Y-14534184D01*
X10731365Y-14534184D02*
X10731365Y-14429422D01*
X10731365Y-14429422D02*
X10721841Y-14410374D01*
X10721841Y-14410374D02*
X10702794Y-14400850D01*
X10702794Y-14400850D02*
X10664698Y-14400850D01*
X10664698Y-14400850D02*
X10645651Y-14410374D01*
X10731365Y-14524660D02*
X10712317Y-14534184D01*
X10712317Y-14534184D02*
X10664698Y-14534184D01*
X10664698Y-14534184D02*
X10645651Y-14524660D01*
X10645651Y-14524660D02*
X10636127Y-14505612D01*
X10636127Y-14505612D02*
X10636127Y-14486565D01*
X10636127Y-14486565D02*
X10645651Y-14467517D01*
X10645651Y-14467517D02*
X10664698Y-14457993D01*
X10664698Y-14457993D02*
X10712317Y-14457993D01*
X10712317Y-14457993D02*
X10731365Y-14448469D01*
X10826603Y-14400850D02*
X10826603Y-14600850D01*
X10826603Y-14410374D02*
X10845651Y-14400850D01*
X10845651Y-14400850D02*
X10883746Y-14400850D01*
X10883746Y-14400850D02*
X10902794Y-14410374D01*
X10902794Y-14410374D02*
X10912317Y-14419898D01*
X10912317Y-14419898D02*
X10921841Y-14438946D01*
X10921841Y-14438946D02*
X10921841Y-14496088D01*
X10921841Y-14496088D02*
X10912317Y-14515136D01*
X10912317Y-14515136D02*
X10902794Y-14524660D01*
X10902794Y-14524660D02*
X10883746Y-14534184D01*
X10883746Y-14534184D02*
X10845651Y-14534184D01*
X10845651Y-14534184D02*
X10826603Y-14524660D01*
X11007555Y-14515136D02*
X11017079Y-14524660D01*
X11017079Y-14524660D02*
X11007555Y-14534184D01*
X11007555Y-14534184D02*
X10998032Y-14524660D01*
X10998032Y-14524660D02*
X11007555Y-14515136D01*
X11007555Y-14515136D02*
X11007555Y-14534184D01*
X11007555Y-14410374D02*
X11017079Y-14419898D01*
X11017079Y-14419898D02*
X11007555Y-14429422D01*
X11007555Y-14429422D02*
X10998032Y-14419898D01*
X10998032Y-14419898D02*
X11007555Y-14410374D01*
X11007555Y-14410374D02*
X11007555Y-14429422D01*
X9175350Y-14762700D02*
X9375350Y-14962700D01*
X9375350Y-14762700D02*
X9175350Y-14962700D01*
X9617079Y-14754184D02*
X9740889Y-14754184D01*
X9740889Y-14754184D02*
X9674222Y-14830374D01*
X9674222Y-14830374D02*
X9702794Y-14830374D01*
X9702794Y-14830374D02*
X9721841Y-14839898D01*
X9721841Y-14839898D02*
X9731365Y-14849422D01*
X9731365Y-14849422D02*
X9740889Y-14868469D01*
X9740889Y-14868469D02*
X9740889Y-14916088D01*
X9740889Y-14916088D02*
X9731365Y-14935136D01*
X9731365Y-14935136D02*
X9721841Y-14944660D01*
X9721841Y-14944660D02*
X9702794Y-14954184D01*
X9702794Y-14954184D02*
X9645651Y-14954184D01*
X9645651Y-14954184D02*
X9626603Y-14944660D01*
X9626603Y-14944660D02*
X9617079Y-14935136D01*
X9826603Y-14935136D02*
X9836127Y-14944660D01*
X9836127Y-14944660D02*
X9826603Y-14954184D01*
X9826603Y-14954184D02*
X9817079Y-14944660D01*
X9817079Y-14944660D02*
X9826603Y-14935136D01*
X9826603Y-14935136D02*
X9826603Y-14954184D01*
X9912317Y-14773231D02*
X9921841Y-14763708D01*
X9921841Y-14763708D02*
X9940889Y-14754184D01*
X9940889Y-14754184D02*
X9988508Y-14754184D01*
X9988508Y-14754184D02*
X10007555Y-14763708D01*
X10007555Y-14763708D02*
X10017079Y-14773231D01*
X10017079Y-14773231D02*
X10026603Y-14792279D01*
X10026603Y-14792279D02*
X10026603Y-14811327D01*
X10026603Y-14811327D02*
X10017079Y-14839898D01*
X10017079Y-14839898D02*
X9902794Y-14954184D01*
X9902794Y-14954184D02*
X10026603Y-14954184D01*
X10150413Y-14754184D02*
X10169460Y-14754184D01*
X10169460Y-14754184D02*
X10188508Y-14763708D01*
X10188508Y-14763708D02*
X10198032Y-14773231D01*
X10198032Y-14773231D02*
X10207555Y-14792279D01*
X10207555Y-14792279D02*
X10217079Y-14830374D01*
X10217079Y-14830374D02*
X10217079Y-14877993D01*
X10217079Y-14877993D02*
X10207555Y-14916088D01*
X10207555Y-14916088D02*
X10198032Y-14935136D01*
X10198032Y-14935136D02*
X10188508Y-14944660D01*
X10188508Y-14944660D02*
X10169460Y-14954184D01*
X10169460Y-14954184D02*
X10150413Y-14954184D01*
X10150413Y-14954184D02*
X10131365Y-14944660D01*
X10131365Y-14944660D02*
X10121841Y-14935136D01*
X10121841Y-14935136D02*
X10112317Y-14916088D01*
X10112317Y-14916088D02*
X10102794Y-14877993D01*
X10102794Y-14877993D02*
X10102794Y-14830374D01*
X10102794Y-14830374D02*
X10112317Y-14792279D01*
X10112317Y-14792279D02*
X10121841Y-14773231D01*
X10121841Y-14773231D02*
X10131365Y-14763708D01*
X10131365Y-14763708D02*
X10150413Y-14754184D01*
X10340889Y-14754184D02*
X10359936Y-14754184D01*
X10359936Y-14754184D02*
X10378984Y-14763708D01*
X10378984Y-14763708D02*
X10388508Y-14773231D01*
X10388508Y-14773231D02*
X10398032Y-14792279D01*
X10398032Y-14792279D02*
X10407555Y-14830374D01*
X10407555Y-14830374D02*
X10407555Y-14877993D01*
X10407555Y-14877993D02*
X10398032Y-14916088D01*
X10398032Y-14916088D02*
X10388508Y-14935136D01*
X10388508Y-14935136D02*
X10378984Y-14944660D01*
X10378984Y-14944660D02*
X10359936Y-14954184D01*
X10359936Y-14954184D02*
X10340889Y-14954184D01*
X10340889Y-14954184D02*
X10321841Y-14944660D01*
X10321841Y-14944660D02*
X10312317Y-14935136D01*
X10312317Y-14935136D02*
X10302794Y-14916088D01*
X10302794Y-14916088D02*
X10293270Y-14877993D01*
X10293270Y-14877993D02*
X10293270Y-14830374D01*
X10293270Y-14830374D02*
X10302794Y-14792279D01*
X10302794Y-14792279D02*
X10312317Y-14773231D01*
X10312317Y-14773231D02*
X10321841Y-14763708D01*
X10321841Y-14763708D02*
X10340889Y-14754184D01*
X10493270Y-14954184D02*
X10493270Y-14820850D01*
X10493270Y-14839898D02*
X10502794Y-14830374D01*
X10502794Y-14830374D02*
X10521841Y-14820850D01*
X10521841Y-14820850D02*
X10550413Y-14820850D01*
X10550413Y-14820850D02*
X10569460Y-14830374D01*
X10569460Y-14830374D02*
X10578984Y-14849422D01*
X10578984Y-14849422D02*
X10578984Y-14954184D01*
X10578984Y-14849422D02*
X10588508Y-14830374D01*
X10588508Y-14830374D02*
X10607555Y-14820850D01*
X10607555Y-14820850D02*
X10636127Y-14820850D01*
X10636127Y-14820850D02*
X10655175Y-14830374D01*
X10655175Y-14830374D02*
X10664698Y-14849422D01*
X10664698Y-14849422D02*
X10664698Y-14954184D01*
X10759936Y-14954184D02*
X10759936Y-14820850D01*
X10759936Y-14839898D02*
X10769460Y-14830374D01*
X10769460Y-14830374D02*
X10788508Y-14820850D01*
X10788508Y-14820850D02*
X10817079Y-14820850D01*
X10817079Y-14820850D02*
X10836127Y-14830374D01*
X10836127Y-14830374D02*
X10845651Y-14849422D01*
X10845651Y-14849422D02*
X10845651Y-14954184D01*
X10845651Y-14849422D02*
X10855175Y-14830374D01*
X10855175Y-14830374D02*
X10874222Y-14820850D01*
X10874222Y-14820850D02*
X10902794Y-14820850D01*
X10902794Y-14820850D02*
X10921841Y-14830374D01*
X10921841Y-14830374D02*
X10931365Y-14849422D01*
X10931365Y-14849422D02*
X10931365Y-14954184D01*
X11321841Y-14744660D02*
X11150413Y-15001803D01*
X11578984Y-14754184D02*
X11598032Y-14754184D01*
X11598032Y-14754184D02*
X11617079Y-14763708D01*
X11617079Y-14763708D02*
X11626603Y-14773231D01*
X11626603Y-14773231D02*
X11636127Y-14792279D01*
X11636127Y-14792279D02*
X11645651Y-14830374D01*
X11645651Y-14830374D02*
X11645651Y-14877993D01*
X11645651Y-14877993D02*
X11636127Y-14916088D01*
X11636127Y-14916088D02*
X11626603Y-14935136D01*
X11626603Y-14935136D02*
X11617079Y-14944660D01*
X11617079Y-14944660D02*
X11598032Y-14954184D01*
X11598032Y-14954184D02*
X11578984Y-14954184D01*
X11578984Y-14954184D02*
X11559936Y-14944660D01*
X11559936Y-14944660D02*
X11550413Y-14935136D01*
X11550413Y-14935136D02*
X11540889Y-14916088D01*
X11540889Y-14916088D02*
X11531365Y-14877993D01*
X11531365Y-14877993D02*
X11531365Y-14830374D01*
X11531365Y-14830374D02*
X11540889Y-14792279D01*
X11540889Y-14792279D02*
X11550413Y-14773231D01*
X11550413Y-14773231D02*
X11559936Y-14763708D01*
X11559936Y-14763708D02*
X11578984Y-14754184D01*
X11731365Y-14935136D02*
X11740889Y-14944660D01*
X11740889Y-14944660D02*
X11731365Y-14954184D01*
X11731365Y-14954184D02*
X11721841Y-14944660D01*
X11721841Y-14944660D02*
X11731365Y-14935136D01*
X11731365Y-14935136D02*
X11731365Y-14954184D01*
X11931365Y-14954184D02*
X11817079Y-14954184D01*
X11874222Y-14954184D02*
X11874222Y-14754184D01*
X11874222Y-14754184D02*
X11855175Y-14782755D01*
X11855175Y-14782755D02*
X11836127Y-14801803D01*
X11836127Y-14801803D02*
X11817079Y-14811327D01*
X12007556Y-14773231D02*
X12017079Y-14763708D01*
X12017079Y-14763708D02*
X12036127Y-14754184D01*
X12036127Y-14754184D02*
X12083746Y-14754184D01*
X12083746Y-14754184D02*
X12102794Y-14763708D01*
X12102794Y-14763708D02*
X12112317Y-14773231D01*
X12112317Y-14773231D02*
X12121841Y-14792279D01*
X12121841Y-14792279D02*
X12121841Y-14811327D01*
X12121841Y-14811327D02*
X12112317Y-14839898D01*
X12112317Y-14839898D02*
X11998032Y-14954184D01*
X11998032Y-14954184D02*
X12121841Y-14954184D01*
X12293270Y-14754184D02*
X12255175Y-14754184D01*
X12255175Y-14754184D02*
X12236127Y-14763708D01*
X12236127Y-14763708D02*
X12226603Y-14773231D01*
X12226603Y-14773231D02*
X12207556Y-14801803D01*
X12207556Y-14801803D02*
X12198032Y-14839898D01*
X12198032Y-14839898D02*
X12198032Y-14916088D01*
X12198032Y-14916088D02*
X12207556Y-14935136D01*
X12207556Y-14935136D02*
X12217079Y-14944660D01*
X12217079Y-14944660D02*
X12236127Y-14954184D01*
X12236127Y-14954184D02*
X12274222Y-14954184D01*
X12274222Y-14954184D02*
X12293270Y-14944660D01*
X12293270Y-14944660D02*
X12302794Y-14935136D01*
X12302794Y-14935136D02*
X12312317Y-14916088D01*
X12312317Y-14916088D02*
X12312317Y-14868469D01*
X12312317Y-14868469D02*
X12302794Y-14849422D01*
X12302794Y-14849422D02*
X12293270Y-14839898D01*
X12293270Y-14839898D02*
X12274222Y-14830374D01*
X12274222Y-14830374D02*
X12236127Y-14830374D01*
X12236127Y-14830374D02*
X12217079Y-14839898D01*
X12217079Y-14839898D02*
X12207556Y-14849422D01*
X12207556Y-14849422D02*
X12198032Y-14868469D01*
X12436127Y-14754184D02*
X12455175Y-14754184D01*
X12455175Y-14754184D02*
X12474222Y-14763708D01*
X12474222Y-14763708D02*
X12483746Y-14773231D01*
X12483746Y-14773231D02*
X12493270Y-14792279D01*
X12493270Y-14792279D02*
X12502794Y-14830374D01*
X12502794Y-14830374D02*
X12502794Y-14877993D01*
X12502794Y-14877993D02*
X12493270Y-14916088D01*
X12493270Y-14916088D02*
X12483746Y-14935136D01*
X12483746Y-14935136D02*
X12474222Y-14944660D01*
X12474222Y-14944660D02*
X12455175Y-14954184D01*
X12455175Y-14954184D02*
X12436127Y-14954184D01*
X12436127Y-14954184D02*
X12417079Y-14944660D01*
X12417079Y-14944660D02*
X12407556Y-14935136D01*
X12407556Y-14935136D02*
X12398032Y-14916088D01*
X12398032Y-14916088D02*
X12388508Y-14877993D01*
X12388508Y-14877993D02*
X12388508Y-14830374D01*
X12388508Y-14830374D02*
X12398032Y-14792279D01*
X12398032Y-14792279D02*
X12407556Y-14773231D01*
X12407556Y-14773231D02*
X12417079Y-14763708D01*
X12417079Y-14763708D02*
X12436127Y-14754184D01*
X12578984Y-14754184D02*
X12578984Y-14792279D01*
X12655175Y-14754184D02*
X12655175Y-14792279D01*
X12950413Y-15030374D02*
X12940889Y-15020850D01*
X12940889Y-15020850D02*
X12921841Y-14992279D01*
X12921841Y-14992279D02*
X12912318Y-14973231D01*
X12912318Y-14973231D02*
X12902794Y-14944660D01*
X12902794Y-14944660D02*
X12893270Y-14897041D01*
X12893270Y-14897041D02*
X12893270Y-14858946D01*
X12893270Y-14858946D02*
X12902794Y-14811327D01*
X12902794Y-14811327D02*
X12912318Y-14782755D01*
X12912318Y-14782755D02*
X12921841Y-14763708D01*
X12921841Y-14763708D02*
X12940889Y-14735136D01*
X12940889Y-14735136D02*
X12950413Y-14725612D01*
X13112318Y-14820850D02*
X13112318Y-14954184D01*
X13064698Y-14744660D02*
X13017079Y-14887517D01*
X13017079Y-14887517D02*
X13140889Y-14887517D01*
X13369460Y-14954184D02*
X13369460Y-14754184D01*
X13455175Y-14954184D02*
X13455175Y-14849422D01*
X13455175Y-14849422D02*
X13445651Y-14830374D01*
X13445651Y-14830374D02*
X13426603Y-14820850D01*
X13426603Y-14820850D02*
X13398032Y-14820850D01*
X13398032Y-14820850D02*
X13378984Y-14830374D01*
X13378984Y-14830374D02*
X13369460Y-14839898D01*
X13578984Y-14954184D02*
X13559937Y-14944660D01*
X13559937Y-14944660D02*
X13550413Y-14935136D01*
X13550413Y-14935136D02*
X13540889Y-14916088D01*
X13540889Y-14916088D02*
X13540889Y-14858946D01*
X13540889Y-14858946D02*
X13550413Y-14839898D01*
X13550413Y-14839898D02*
X13559937Y-14830374D01*
X13559937Y-14830374D02*
X13578984Y-14820850D01*
X13578984Y-14820850D02*
X13607556Y-14820850D01*
X13607556Y-14820850D02*
X13626603Y-14830374D01*
X13626603Y-14830374D02*
X13636127Y-14839898D01*
X13636127Y-14839898D02*
X13645651Y-14858946D01*
X13645651Y-14858946D02*
X13645651Y-14916088D01*
X13645651Y-14916088D02*
X13636127Y-14935136D01*
X13636127Y-14935136D02*
X13626603Y-14944660D01*
X13626603Y-14944660D02*
X13607556Y-14954184D01*
X13607556Y-14954184D02*
X13578984Y-14954184D01*
X13759937Y-14954184D02*
X13740889Y-14944660D01*
X13740889Y-14944660D02*
X13731365Y-14925612D01*
X13731365Y-14925612D02*
X13731365Y-14754184D01*
X13912318Y-14944660D02*
X13893270Y-14954184D01*
X13893270Y-14954184D02*
X13855175Y-14954184D01*
X13855175Y-14954184D02*
X13836127Y-14944660D01*
X13836127Y-14944660D02*
X13826603Y-14925612D01*
X13826603Y-14925612D02*
X13826603Y-14849422D01*
X13826603Y-14849422D02*
X13836127Y-14830374D01*
X13836127Y-14830374D02*
X13855175Y-14820850D01*
X13855175Y-14820850D02*
X13893270Y-14820850D01*
X13893270Y-14820850D02*
X13912318Y-14830374D01*
X13912318Y-14830374D02*
X13921841Y-14849422D01*
X13921841Y-14849422D02*
X13921841Y-14868469D01*
X13921841Y-14868469D02*
X13826603Y-14887517D01*
X13998032Y-14944660D02*
X14017080Y-14954184D01*
X14017080Y-14954184D02*
X14055175Y-14954184D01*
X14055175Y-14954184D02*
X14074222Y-14944660D01*
X14074222Y-14944660D02*
X14083746Y-14925612D01*
X14083746Y-14925612D02*
X14083746Y-14916088D01*
X14083746Y-14916088D02*
X14074222Y-14897041D01*
X14074222Y-14897041D02*
X14055175Y-14887517D01*
X14055175Y-14887517D02*
X14026603Y-14887517D01*
X14026603Y-14887517D02*
X14007556Y-14877993D01*
X14007556Y-14877993D02*
X13998032Y-14858946D01*
X13998032Y-14858946D02*
X13998032Y-14849422D01*
X13998032Y-14849422D02*
X14007556Y-14830374D01*
X14007556Y-14830374D02*
X14026603Y-14820850D01*
X14026603Y-14820850D02*
X14055175Y-14820850D01*
X14055175Y-14820850D02*
X14074222Y-14830374D01*
X14150413Y-15030374D02*
X14159937Y-15020850D01*
X14159937Y-15020850D02*
X14178984Y-14992279D01*
X14178984Y-14992279D02*
X14188508Y-14973231D01*
X14188508Y-14973231D02*
X14198032Y-14944660D01*
X14198032Y-14944660D02*
X14207556Y-14897041D01*
X14207556Y-14897041D02*
X14207556Y-14858946D01*
X14207556Y-14858946D02*
X14198032Y-14811327D01*
X14198032Y-14811327D02*
X14188508Y-14782755D01*
X14188508Y-14782755D02*
X14178984Y-14763708D01*
X14178984Y-14763708D02*
X14159937Y-14735136D01*
X14159937Y-14735136D02*
X14150413Y-14725612D01*
X14512318Y-15030374D02*
X14502794Y-15020850D01*
X14502794Y-15020850D02*
X14483746Y-14992279D01*
X14483746Y-14992279D02*
X14474222Y-14973231D01*
X14474222Y-14973231D02*
X14464699Y-14944660D01*
X14464699Y-14944660D02*
X14455175Y-14897041D01*
X14455175Y-14897041D02*
X14455175Y-14858946D01*
X14455175Y-14858946D02*
X14464699Y-14811327D01*
X14464699Y-14811327D02*
X14474222Y-14782755D01*
X14474222Y-14782755D02*
X14483746Y-14763708D01*
X14483746Y-14763708D02*
X14502794Y-14735136D01*
X14502794Y-14735136D02*
X14512318Y-14725612D01*
X14588508Y-14820850D02*
X14588508Y-14954184D01*
X14588508Y-14839898D02*
X14598032Y-14830374D01*
X14598032Y-14830374D02*
X14617080Y-14820850D01*
X14617080Y-14820850D02*
X14645651Y-14820850D01*
X14645651Y-14820850D02*
X14664699Y-14830374D01*
X14664699Y-14830374D02*
X14674222Y-14849422D01*
X14674222Y-14849422D02*
X14674222Y-14954184D01*
X14798032Y-14954184D02*
X14778984Y-14944660D01*
X14778984Y-14944660D02*
X14769461Y-14935136D01*
X14769461Y-14935136D02*
X14759937Y-14916088D01*
X14759937Y-14916088D02*
X14759937Y-14858946D01*
X14759937Y-14858946D02*
X14769461Y-14839898D01*
X14769461Y-14839898D02*
X14778984Y-14830374D01*
X14778984Y-14830374D02*
X14798032Y-14820850D01*
X14798032Y-14820850D02*
X14826603Y-14820850D01*
X14826603Y-14820850D02*
X14845651Y-14830374D01*
X14845651Y-14830374D02*
X14855175Y-14839898D01*
X14855175Y-14839898D02*
X14864699Y-14858946D01*
X14864699Y-14858946D02*
X14864699Y-14916088D01*
X14864699Y-14916088D02*
X14855175Y-14935136D01*
X14855175Y-14935136D02*
X14845651Y-14944660D01*
X14845651Y-14944660D02*
X14826603Y-14954184D01*
X14826603Y-14954184D02*
X14798032Y-14954184D01*
X14921842Y-14820850D02*
X14998032Y-14820850D01*
X14950413Y-14754184D02*
X14950413Y-14925612D01*
X14950413Y-14925612D02*
X14959937Y-14944660D01*
X14959937Y-14944660D02*
X14978984Y-14954184D01*
X14978984Y-14954184D02*
X14998032Y-14954184D01*
X15217080Y-14820850D02*
X15217080Y-15020850D01*
X15217080Y-14830374D02*
X15236127Y-14820850D01*
X15236127Y-14820850D02*
X15274223Y-14820850D01*
X15274223Y-14820850D02*
X15293270Y-14830374D01*
X15293270Y-14830374D02*
X15302794Y-14839898D01*
X15302794Y-14839898D02*
X15312318Y-14858946D01*
X15312318Y-14858946D02*
X15312318Y-14916088D01*
X15312318Y-14916088D02*
X15302794Y-14935136D01*
X15302794Y-14935136D02*
X15293270Y-14944660D01*
X15293270Y-14944660D02*
X15274223Y-14954184D01*
X15274223Y-14954184D02*
X15236127Y-14954184D01*
X15236127Y-14954184D02*
X15217080Y-14944660D01*
X15426603Y-14954184D02*
X15407556Y-14944660D01*
X15407556Y-14944660D02*
X15398032Y-14925612D01*
X15398032Y-14925612D02*
X15398032Y-14754184D01*
X15588508Y-14954184D02*
X15588508Y-14849422D01*
X15588508Y-14849422D02*
X15578984Y-14830374D01*
X15578984Y-14830374D02*
X15559937Y-14820850D01*
X15559937Y-14820850D02*
X15521842Y-14820850D01*
X15521842Y-14820850D02*
X15502794Y-14830374D01*
X15588508Y-14944660D02*
X15569461Y-14954184D01*
X15569461Y-14954184D02*
X15521842Y-14954184D01*
X15521842Y-14954184D02*
X15502794Y-14944660D01*
X15502794Y-14944660D02*
X15493270Y-14925612D01*
X15493270Y-14925612D02*
X15493270Y-14906565D01*
X15493270Y-14906565D02*
X15502794Y-14887517D01*
X15502794Y-14887517D02*
X15521842Y-14877993D01*
X15521842Y-14877993D02*
X15569461Y-14877993D01*
X15569461Y-14877993D02*
X15588508Y-14868469D01*
X15655175Y-14820850D02*
X15731365Y-14820850D01*
X15683746Y-14754184D02*
X15683746Y-14925612D01*
X15683746Y-14925612D02*
X15693270Y-14944660D01*
X15693270Y-14944660D02*
X15712318Y-14954184D01*
X15712318Y-14954184D02*
X15731365Y-14954184D01*
X15874223Y-14944660D02*
X15855175Y-14954184D01*
X15855175Y-14954184D02*
X15817080Y-14954184D01*
X15817080Y-14954184D02*
X15798032Y-14944660D01*
X15798032Y-14944660D02*
X15788508Y-14925612D01*
X15788508Y-14925612D02*
X15788508Y-14849422D01*
X15788508Y-14849422D02*
X15798032Y-14830374D01*
X15798032Y-14830374D02*
X15817080Y-14820850D01*
X15817080Y-14820850D02*
X15855175Y-14820850D01*
X15855175Y-14820850D02*
X15874223Y-14830374D01*
X15874223Y-14830374D02*
X15883746Y-14849422D01*
X15883746Y-14849422D02*
X15883746Y-14868469D01*
X15883746Y-14868469D02*
X15788508Y-14887517D01*
X16055175Y-14954184D02*
X16055175Y-14754184D01*
X16055175Y-14944660D02*
X16036127Y-14954184D01*
X16036127Y-14954184D02*
X15998032Y-14954184D01*
X15998032Y-14954184D02*
X15978984Y-14944660D01*
X15978984Y-14944660D02*
X15969461Y-14935136D01*
X15969461Y-14935136D02*
X15959937Y-14916088D01*
X15959937Y-14916088D02*
X15959937Y-14858946D01*
X15959937Y-14858946D02*
X15969461Y-14839898D01*
X15969461Y-14839898D02*
X15978984Y-14830374D01*
X15978984Y-14830374D02*
X15998032Y-14820850D01*
X15998032Y-14820850D02*
X16036127Y-14820850D01*
X16036127Y-14820850D02*
X16055175Y-14830374D01*
X16131365Y-15030374D02*
X16140889Y-15020850D01*
X16140889Y-15020850D02*
X16159937Y-14992279D01*
X16159937Y-14992279D02*
X16169461Y-14973231D01*
X16169461Y-14973231D02*
X16178984Y-14944660D01*
X16178984Y-14944660D02*
X16188508Y-14897041D01*
X16188508Y-14897041D02*
X16188508Y-14858946D01*
X16188508Y-14858946D02*
X16178984Y-14811327D01*
X16178984Y-14811327D02*
X16169461Y-14782755D01*
X16169461Y-14782755D02*
X16159937Y-14763708D01*
X16159937Y-14763708D02*
X16140889Y-14735136D01*
X16140889Y-14735136D02*
X16131365Y-14725612D01*
M02*
