%TF.GenerationSoftware,KiCad,Pcbnew,8.0.2*%
%TF.CreationDate,2025-04-19T11:58:40+02:00*%
%TF.ProjectId,Patje zuig men kloten,5061746a-6520-47a7-9569-67206d656e20,rev?*%
%TF.SameCoordinates,Original*%
%TF.FileFunction,Soldermask,Bot*%
%TF.FilePolarity,Negative*%
%FSLAX46Y46*%
G04 Gerber Fmt 4.6, Leading zero omitted, Abs format (unit mm)*
G04 Created by KiCad (PCBNEW 8.0.2) date 2025-04-19 11:58:40*
%MOMM*%
%LPD*%
G01*
G04 APERTURE LIST*
%ADD10C,1.600000*%
%ADD11O,1.600000X1.600000*%
%ADD12R,1.600000X1.600000*%
%ADD13R,1.700000X1.700000*%
%ADD14C,3.200000*%
%ADD15R,2.600000X2.600000*%
%ADD16C,2.600000*%
G04 APERTURE END LIST*
D10*
%TO.C,R15*%
X169220000Y-118600000D03*
D11*
X179380000Y-118600000D03*
%TD*%
D12*
%TO.C,SW2*%
X180687500Y-47921500D03*
D11*
X178147500Y-47921500D03*
X175607500Y-47921500D03*
X173067500Y-47921500D03*
X173067500Y-55541500D03*
X175607500Y-55541500D03*
X178147500Y-55541500D03*
X180687500Y-55541500D03*
%TD*%
D10*
%TO.C,R9*%
X157000000Y-139380000D03*
D11*
X157000000Y-129220000D03*
%TD*%
D13*
%TO.C,J19*%
X144883500Y-120777000D03*
%TD*%
D10*
%TO.C,R17*%
X175600000Y-109880000D03*
D11*
X175600000Y-99720000D03*
%TD*%
D13*
%TO.C,J18*%
X160330500Y-103124000D03*
%TD*%
%TO.C,J17*%
X154027500Y-118364000D03*
%TD*%
D14*
%TO.C,H3*%
X188444500Y-47498000D03*
%TD*%
D12*
%TO.C,SW6*%
X107418500Y-64516000D03*
D11*
X107418500Y-67056000D03*
X115038500Y-67056000D03*
X115038500Y-64516000D03*
%TD*%
D14*
%TO.C,H1*%
X187682500Y-137160000D03*
%TD*%
D15*
%TO.C,J22*%
X99400000Y-126300000D03*
D16*
X99400000Y-131300000D03*
%TD*%
D13*
%TO.C,J7*%
X145264500Y-74295000D03*
%TD*%
D15*
%TO.C,J1*%
X99112500Y-50499000D03*
D16*
X99112500Y-55499000D03*
X99112500Y-60499000D03*
%TD*%
D13*
%TO.C,J21*%
X188190500Y-123698000D03*
%TD*%
D12*
%TO.C,SW14*%
X108731000Y-91958000D03*
D11*
X108731000Y-94498000D03*
X108731000Y-97038000D03*
X108731000Y-99578000D03*
X108731000Y-102118000D03*
X108731000Y-104658000D03*
X108731000Y-107198000D03*
X108731000Y-109738000D03*
X108731000Y-112278000D03*
X116351000Y-112278000D03*
X116351000Y-109738000D03*
X116351000Y-107198000D03*
X116351000Y-104658000D03*
X116351000Y-102118000D03*
X116351000Y-99578000D03*
X116351000Y-97038000D03*
X116351000Y-94498000D03*
X116351000Y-91958000D03*
%TD*%
D12*
%TO.C,SW1*%
X181449500Y-70654500D03*
D11*
X178909500Y-70654500D03*
X176369500Y-70654500D03*
X173829500Y-70654500D03*
X173829500Y-78274500D03*
X176369500Y-78274500D03*
X178909500Y-78274500D03*
X181449500Y-78274500D03*
%TD*%
D13*
%TO.C,J5*%
X163044500Y-129286000D03*
%TD*%
%TO.C,J16*%
X166092500Y-120650000D03*
%TD*%
D12*
%TO.C,SW15*%
X183580000Y-96901000D03*
D11*
X183580000Y-99441000D03*
X183580000Y-101981000D03*
X183580000Y-104521000D03*
X183580000Y-107061000D03*
X183580000Y-109601000D03*
X183580000Y-112141000D03*
X183580000Y-114681000D03*
X183580000Y-117221000D03*
X191200000Y-117221000D03*
X191200000Y-114681000D03*
X191200000Y-112141000D03*
X191200000Y-109601000D03*
X191200000Y-107061000D03*
X191200000Y-104521000D03*
X191200000Y-101981000D03*
X191200000Y-99441000D03*
X191200000Y-96901000D03*
%TD*%
D12*
%TO.C,SW10*%
X130744000Y-80381000D03*
D11*
X130744000Y-77841000D03*
X130744000Y-75301000D03*
X130744000Y-72761000D03*
X123124000Y-72761000D03*
X123124000Y-75301000D03*
X123124000Y-77841000D03*
X123124000Y-80381000D03*
%TD*%
D12*
%TO.C,SW8*%
X133242000Y-47112000D03*
D11*
X133242000Y-49652000D03*
X140862000Y-49652000D03*
X140862000Y-47112000D03*
%TD*%
D13*
%TO.C,J15*%
X161620500Y-120603000D03*
%TD*%
%TO.C,J11*%
X124563500Y-95885000D03*
%TD*%
D12*
%TO.C,SW7*%
X107334000Y-56002000D03*
D11*
X107334000Y-58542000D03*
X114954000Y-58542000D03*
X114954000Y-56002000D03*
%TD*%
D10*
%TO.C,R16*%
X162500000Y-97400000D03*
D11*
X172660000Y-97400000D03*
%TD*%
D13*
%TO.C,J6*%
X166981500Y-78867000D03*
%TD*%
%TO.C,J12*%
X140692500Y-121666000D03*
%TD*%
D10*
%TO.C,R18*%
X179880000Y-112600000D03*
D11*
X169720000Y-112600000D03*
%TD*%
D12*
%TO.C,SW3*%
X151492500Y-47794500D03*
D11*
X148952500Y-47794500D03*
X148952500Y-55414500D03*
X151492500Y-55414500D03*
%TD*%
D10*
%TO.C,R14*%
X153900000Y-105120000D03*
D11*
X153900000Y-115280000D03*
%TD*%
D10*
%TO.C,R11*%
X159320000Y-124500000D03*
D11*
X169480000Y-124500000D03*
%TD*%
D13*
%TO.C,J13*%
X145391500Y-134493000D03*
%TD*%
D12*
%TO.C,SW12*%
X129220000Y-111369000D03*
D11*
X129220000Y-108829000D03*
X129220000Y-106289000D03*
X129220000Y-103749000D03*
X121600000Y-103749000D03*
X121600000Y-106289000D03*
X121600000Y-108829000D03*
X121600000Y-111369000D03*
%TD*%
D13*
%TO.C,J9*%
X160758500Y-44450000D03*
%TD*%
D10*
%TO.C,R10*%
X160020000Y-132600000D03*
D11*
X170180000Y-132600000D03*
%TD*%
D13*
%TO.C,J14*%
X153519500Y-134493000D03*
%TD*%
D15*
%TO.C,J4*%
X99290500Y-112856000D03*
D16*
X99290500Y-117856000D03*
%TD*%
D14*
%TO.C,H4*%
X100300000Y-138200000D03*
%TD*%
D12*
%TO.C,SW13*%
X147413500Y-109389500D03*
D11*
X144873500Y-109389500D03*
X142333500Y-109389500D03*
X139793500Y-109389500D03*
X139793500Y-117009500D03*
X142333500Y-117009500D03*
X144873500Y-117009500D03*
X147413500Y-117009500D03*
%TD*%
D10*
%TO.C,R13*%
X147020000Y-101700000D03*
D11*
X157180000Y-101700000D03*
%TD*%
D12*
%TO.C,SW11*%
X138745000Y-93970000D03*
D11*
X138745000Y-91430000D03*
X138745000Y-88890000D03*
X138745000Y-86350000D03*
X131125000Y-86350000D03*
X131125000Y-88890000D03*
X131125000Y-91430000D03*
X131125000Y-93970000D03*
%TD*%
D13*
%TO.C,J20*%
X108561500Y-118491000D03*
%TD*%
D12*
%TO.C,SW9*%
X140904000Y-64521000D03*
D11*
X140904000Y-61981000D03*
X133284000Y-61981000D03*
X133284000Y-64521000D03*
%TD*%
D15*
%TO.C,J3*%
X99163500Y-74676000D03*
D16*
X99163500Y-79756000D03*
X99163500Y-84836000D03*
X99163500Y-89916000D03*
%TD*%
D12*
%TO.C,SW5*%
X107207000Y-47747000D03*
D11*
X107207000Y-50287000D03*
X114827000Y-50287000D03*
X114827000Y-47747000D03*
%TD*%
D15*
%TO.C,J2*%
X99620500Y-98465000D03*
D16*
X99620500Y-103465000D03*
%TD*%
D14*
%TO.C,H2*%
X98401500Y-67310000D03*
%TD*%
D13*
%TO.C,J10*%
X139803500Y-54864000D03*
%TD*%
%TO.C,J8*%
X157456500Y-74422000D03*
%TD*%
D10*
%TO.C,R12*%
X172800000Y-123720000D03*
D11*
X172800000Y-133880000D03*
%TD*%
D12*
%TO.C,SW4*%
X151619500Y-83608500D03*
D11*
X149079500Y-83608500D03*
X149079500Y-91228500D03*
X151619500Y-91228500D03*
%TD*%
M02*
